<?xml version="1.0" encoding="utf-8"?>
<!-- Generator: Adobe Illustrator 27.5.0, SVG Export Plug-In . SVG Version: 6.00 Build 0)  -->
<svg version="1.1" xmlns="http://www.w3.org/2000/svg" xmlns:xlink="http://www.w3.org/1999/xlink" x="0px" y="0px"
	 viewBox="0 0 750 500" style="enable-background:new 0 0 750 500;" xml:space="preserve">
<g id="BACKGROUND">
	<rect y="0.001" style="fill:#FFE8C7;" width="750" height="500"/>
</g>
<g id="OBJECTS">
	<path style="opacity:0.4;fill:#FFFFFF;" d="M493.9,39.924c-84.341,24.488-92.297,25.566-177.811,11.901
		c-56.674-9.058-131.412-20.872-191.518,10.023c-17.424,8.956-33.752,22.068-47.644,38.134
		c-64.656,74.77-41.208,192.616,7.832,244.5c66.368,70.223,172.309,38.334,265.195,12.132
		c43.006-12.134,67.851-18.656,147.871,10.306c90.511,32.758,152.114,0.424,194.08-74.613
		c29.718-53.141,25.229-132.145,0.331-178.337C658.315,51.035,582.769,14.122,493.9,39.924z"/>
	<path style="fill:#FFE8C7;" d="M649.619,418.772c-11.31-0.434-26.619-3.607-31.315-5.452c-4.243-1.667-11.555-3.415-20.038-4.975
		c-33.279-6.116-44.54-6.267-62.786-2.216c-5.19,1.154-11.161,2.548-17.155,3.933c-25.053,5.791-41.091,6.113-55.708,2.995
		c-7.557-1.611-14.931-3.776-22.542-5.209c-5.705-1.076-33.189-3.201-52.261-0.385c-22.097,3.261-26.987,11.768-46.564,4.231
		c-17.711-6.814-17.475-9.544-54.211-7.813c-10.949,0.517-23.411,1.245-32.556,1.947c-39.58,3.037-38.806,21.201-0.872,23.937
		c4.11,0.296,8.234,0.483,12.334,0.79c10.932,0.82,19.753,7.234,29.352,11.106c5.505,2.222,11.076,3.07,17.129,3.176
		c6.424,0.113,12.861-0.203,19.258,0.443c7.194,0.728,13.797,3.242,19.27,7.272c4.136,3.045,7.794,6.232,13.119,7.722
		c6.647,1.86,13.175-0.006,19.899-0.223c6.832-0.22,13.849,2.107,20.134,4.135c6.195,1.996,12.337,4.011,18.908,4.915
		c7.364,1.017,15.127,0.764,22.56,0.595c16.388-0.378,20.871-4.044,37.274-4.504c33.034-0.927,45.131,2.281,61.804,2.544
		c8.352,0.133,16.718,0.479,25.057,0.054c44.447-2.274,49.485-17.111,78.914-17.874
		C713.554,448.235,722.809,421.576,649.619,418.772z"/>
	<g>
		<g>
			<rect x="63.616" y="45.826" style="fill:#7A9DF5;" width="231.02" height="299.952"/>
			<rect x="58.116" y="342.739" style="fill:#5073BF;" width="242.02" height="12.72"/>
			<rect x="58.116" y="36.146" style="fill:#5073BF;" width="242.02" height="12.72"/>
		</g>
		<g>
			<rect x="172.908" y="61.128" style="fill:#A2BFF9;" width="103.331" height="5.258"/>
			<rect x="172.908" y="71.449" style="fill:#A2BFF9;" width="103.331" height="5.258"/>
			<rect x="172.908" y="81.771" style="fill:#A2BFF9;" width="103.331" height="5.258"/>
			<rect x="172.908" y="92.092" style="fill:#A2BFF9;" width="103.331" height="5.258"/>
			<rect x="172.908" y="102.415" style="fill:#A2BFF9;" width="103.331" height="5.258"/>
			<rect x="172.908" y="112.736" style="fill:#A2BFF9;" width="103.331" height="5.258"/>
			<rect x="172.908" y="123.058" style="fill:#A2BFF9;" width="103.331" height="5.258"/>
			<rect x="172.908" y="133.379" style="fill:#A2BFF9;" width="103.331" height="5.258"/>
			<rect x="172.908" y="143.701" style="fill:#A2BFF9;" width="103.331" height="5.258"/>
		</g>
		<g>
			<path style="fill:#C0D6F9;" d="M246.703,191.806l-10.14,27.274c3.037,1.034,6.288,1.604,9.675,1.604
				c11.789,0,21.984-6.803,26.889-16.694L246.703,191.806z"/>
			<path style="fill:#A2BFF9;" d="M246.785,189.676l28.154-7.746c-3.747-12.299-15.177-21.247-28.701-21.247
				c-2.882,0-5.665,0.414-8.303,1.173L246.785,189.676z"/>
			<path style="fill:#8BAFE8;" d="M273.823,202.491c1.554-3.624,2.417-7.616,2.417-11.808c0-2.469-0.304-4.865-0.867-7.159
				l-26.734,7.354L273.823,202.491z"/>
			<path style="fill:#C9D9F2;" d="M245.365,190.661l-9.006-28.307c-11.713,4.085-20.121,15.221-20.121,28.329
				c0,12.598,7.77,23.375,18.775,27.82L245.365,190.661z"/>
			<path style="fill:#A2BFF9;" d="M179.171,189.791l27.953-9.884c-4.33-11.243-15.229-19.225-27.999-19.225
				c-11.681,0-21.796,6.68-26.751,16.426L179.171,189.791z"/>
			<path style="fill:#8BAFE8;" d="M200.909,211.298c5.09-5.376,8.218-12.628,8.218-20.615c0-3.217-0.512-6.314-1.45-9.219
				l-27.04,9.561L200.909,211.298z"/>
			<rect x="179.126" y="190.683" style="fill:#A2BFF9;" width="0.001" height="0.001"/>
			<path style="fill:#C9D9F2;" d="M178.071,191.097l-26.405-12.496c-1.63,3.697-2.541,7.782-2.541,12.083
				c0,12.35,7.466,22.955,18.129,27.555L178.071,191.097z"/>
			<path style="fill:#C0D6F9;" d="M179.429,192.153l-10.641,26.7c3.223,1.184,6.704,1.83,10.337,1.83
				c7.987,0,15.24-3.127,20.615-8.217L179.429,192.153z"/>
			<path style="fill:#8BAFE8;" d="M140.233,200.878c1.151-3.183,1.78-6.616,1.78-10.195c0-4.312-0.917-8.408-2.554-12.113
				l-25.369,12.04L140.233,200.878z"/>
			<path style="fill:#A2BFF9;" d="M112.52,189.528l26.229-12.449c-4.961-9.729-15.066-16.396-26.736-16.396
				c-2.807,0-5.52,0.393-8.096,1.114L112.52,189.528z"/>
			<path style="fill:#C9D9F2;" d="M95.574,215.773l15.539-25.205l-8.774-28.283c-11.82,4.026-20.326,15.215-20.326,28.397
				C82.013,201.18,87.408,210.413,95.574,215.773z"/>
			<path style="fill:#C0D6F9;" d="M112.354,191.704L96.98,216.64c4.42,2.566,9.553,4.043,15.033,4.043
				c12.404,0,23.049-7.53,27.617-18.266L112.354,191.704z"/>
		</g>
		<rect x="82.013" y="61.128" style="fill:#C0D6F9;" width="84.79" height="87.831"/>
		<path style="fill:#A2BFF9;" d="M82.013,231.003v99.474h194.227v-99.474H82.013z M271.542,325.78H86.71V235.7h184.833V325.78z"/>
	</g>
	<g>
		<path style="fill:#585E60;" d="M304.438,394.624c-3.953-1.725-10.012-1.782-13.922,0.136c-1.191,0.584-3.399,2.308-5.722,3.963
			c-7.917,5.642-11.867,6.593-14.735,6.725c-3.073,0.141-7.927-0.082-9.979,2.705c-2.174,2.953,2.542,5.229,4.574,5.863
			c4.009,1.252,8.744,1.641,12.917,1.231c10.014-0.981,13.355-3.615,15.402-3.775c2.213-0.173,4.48,0.466,6.658,0.785
			c3.807,0.559,10.149-0.171,9.767-5.189C309.042,402.386,309.382,396.781,304.438,394.624z"/>
		<path style="fill:#F78C17;" d="M307.745,71.816c-8.943-6.744-28.186-6.517-35.473,6.577c-3.079,5.53-3.142,12.182-2.059,18.199
			c2.284,12.697,12.535,18.337,18.917,19.3c7.658,1.154,15.67-1.621,19.138-4.925c2.013-1.915,3.53-4.269,4.637-6.83
			C316.997,94.664,317.001,78.796,307.745,71.816z"/>
		<path style="fill:#FBB396;" d="M276.177,101.643c0.925,1.961,1.174,4.568,0.978,6.624c-0.479,5-4.461,3.015-5.852,0.172
			c-1.052-2.148-1.381-4.888-1.301-5.669C270.369,99.223,273.637,96.257,276.177,101.643z"/>
		<path style="fill:#6D7172;" d="M320.943,402.188c-2.704-0.513-5.218,0.142-7.67-0.01c-5.946-0.368-10.394,8.224-11.439,10.284
			c-4.591,6.178-10.277,14.26-2.407,17.26c4.201,1.603,9.761,0.491,14.131,0.029c5.911-0.628,11.245-2.361,14.341-7.156
			C332.901,414.842,332.154,404.321,320.943,402.188z"/>
		<path style="fill:#A06928;" d="M273.732,123.277c-1.181,0.063-2.363,0.29-3.535,0.634c-2.982,0.744-5.786,1.975-8.506,3.517
			c-1.821,1.032-3.596,2.099-5.372,3.152c-7.31,4.336-11.116,3.771-17.618-2.574c-4.714-4.601-15.554-18.533-16.793-20.226
			c-2.002-2.736-3.508-5.732-7.299-5.806c-3.889-0.077-8.631,1.752-10.945,4.675c-0.996,1.259-1.538,2.72-1.762,4.256
			c-0.371,2.559,0.574,5.922,2.168,9.458c3.494,7.751,21.591,30.026,25.649,33.577c9.346,8.179,17.956,10.313,32.479,8.744
			c5.795-0.626,14.568-23.214,15.526-34.442C278.107,123.752,275.742,123.054,273.732,123.277z"/>
		<path style="fill:#844B12;" d="M310.966,379.332c0.02-8.866,0.081-17.736-0.049-26.602c-0.256-17.533-1.347-35.044-2.24-52.553
			c-0.862-16.898-1.921-33.987-1.159-50.906c0.405-9.001,1.335-18.719,0.276-29.002c-13.924,0.08-26.396,0.712-41.36,0.841
			c-2.828,0.025-3.227,1.938-3.237,3.901c-0.165,32.501,3.06,65.305,8.572,97.288c2.928,16.994,5.961,33.985,7.492,51.177
			c0.583,6.537,0.185,13.381,1.415,19.833c0.707,3.705,3.332,5.577,6.826,6.48c4.502,1.163,9.757,1.494,14.38,1.408
			c3.754-0.067,8.164-0.983,9.186-5.131c0.575-2.334,0.32-4.924,0.194-7.295C311.092,385.61,310.958,382.503,310.966,379.332z"/>
		<path style="fill:#A06928;" d="M329.225,326.672c-0.262-8.393-2.22-16.643-2.974-24.989c-0.824-9.125,0.209-18.634,0.435-27.784
			c0.264-10.681,0.439-21.365,0.466-32.047c0.01-4.044,0.002-8.09-0.116-12.133c-0.049-1.68,0.117-4.579-0.093-7.009
			c-0.304-3.499-0.075-2.757-3.358-2.667c-11.258,0.312-45.422,0.292-49.663,0.954c-0.155,3.491,0.056,5.444,0.251,7.097
			c0.44,3.719,0.581,7.463,0.956,11.19c1.637,16.297,6.074,32.166,9.896,48.046c1.668,6.93,3.272,13.874,4.731,20.85
			c1.441,8.829,2.753,17.68,4.046,26.516c2.545,17.391,4.855,34.823,6.544,52.321c0.563,5.825,0.622,11.868,1.656,17.631
			c0.796,4.436,3.051,7.015,7.27,8.416c7.456,2.478,20.79,2.03,21.861-8.007c1.859-17.421,0.702-34.945-0.472-52.37
			C330.077,344.019,329.495,335.355,329.225,326.672z"/>
		<path style="fill:#FBFEFF;" d="M310.439,121.353c-2.953-3.659-8.296-5.287-12.865-4.809c-8.175,0.855-12.662,5.622-16.685,11.332
			c-4.257,6.039-6.35,13.847-7.844,20.834c-1.208,5.652-7.545,39.762-9.233,66.938c-0.268,4.304,0.497,6.14,5.295,6.885
			c6.673,1.037,14.12,1.141,20.829,0.549c3.895-0.344,5.922-0.993,6.029-4.629c1.123-38.145,10.009-63.212,12.601-71.276
			c1.486-4.624,3.159-9.18,3.912-14.001C313.088,129.257,313.061,124.601,310.439,121.353z"/>
		<path style="fill:#965C1D;" d="M339.529,138.441c-5.656-5.455-14.45-6.788-21.19-10.344c-4.017-2.119-4.79-6.316-7.531-9.56
			c-0.886-1.049-1.949-1.948-3.182-2.676c-3.716-2.195-8.973-2.834-15.56-1.335c-2.805,0.638-4.631,2.793-6.443,4.855
			c-2.851,3.243-5.932,3.709-10.097,3.903c-3.067,0.143-5.794,0.843-8.264,2.703c-4.207,3.171-6.438,8.438-8.207,13.229
			c-2.475,6.706-4.216,13.779-5.944,20.705c-4.038,16.188-5.623,33.172-6.442,49.809c-1.748,35.441,3.883,43.576,11.1,48.255
			c3.552,2.304,7.343,2.476,9.115,1.238c2.048-1.431,2.314-5.463,2.167-9.875c-1.409-42.139,2.618-74.26,6.001-89.5
			c2.48-11.174,3.701-22.963,9.208-33.2c4.112-7.645,17.89-13.119,23.776-5.047c2.313,5.041-1.202,13.26-2.832,17.733
			c-1.186,3.255-2.585,6.431-3.75,9.693c-2.327,6.514-3.901,13.42-5.412,20.161c-3.635,16.224-6.986,45.249-2.088,72.012
			c4.517,24.685,21.298,24.486,31.417,22.119c1.862-0.435,4.057-1.16,5.226-2.787c1.335-1.857,1.349-4.047,1.384-6.253
			c0.071-4.41-0.198-8.826-0.441-13.228c-0.94-17.036-0.098-33.813,2.648-50.661c1.647-10.109,3.91-20.039,6.608-29.913
			C342.744,153.341,345.594,144.292,339.529,138.441z"/>
		<path style="fill:#FECAB3;" d="M343.739,259.067c0.283-2.128,0.726-4.675,0.065-5.678c-0.288-0.434-8.596-1.611-11.651-1.938
			c-1.404-0.148-0.994-0.346-1.788,0.861c-1.539,2.331-2.558,5.362-3.561,7.841c-1.021,2.522-1.98,5.259-2.41,8.022
			c-0.185,1.183,0.453,2.225,0.499,3.404c0.062,1.569-0.194,3.059,0.698,4.035c0.698,0.763,1.654,1.305,2.878,1.556
			c1.987,0.411,3.243-0.029,4.093-0.928c1.57,0.325,3.211-0.212,4.204-1.564c0.167-0.227,0.303-0.466,0.421-0.712
			c1.053-0.018,2.137-0.465,2.769-1.249c0.081-0.101,0.145-0.209,0.215-0.313C343.982,273.015,343.579,260.278,343.739,259.067z"/>
		<path style="fill:#FBB396;" d="M288.655,111.284c-2.621,1.849-3.023,4.396-3.369,8.497c-0.274,3.257-0.379,6.781-0.054,9.372
			c1.377,10.997,22.134-2.456,21.658-10.639c-0.203-3.507-0.232-9.726-9.67-9.574C294.017,108.991,290.733,109.817,288.655,111.284z
			"/>
		<path style="fill:#FECAB3;" d="M273.201,94.025c-0.321,8.097,1.105,17.579,6.212,24.147c5.087,6.542,13.856,7.816,20.667,2.991
			c4.622-3.274,7.723-8.623,9.856-13.749c3.512-8.441,4.419-17.61,0.161-25.389c-5.841-10.67-26.15-13.716-33.611-0.176
			C274.592,85.288,273.385,89.418,273.201,94.025z"/>
		<path style="fill:#A06928;" d="M350.535,183.874c-0.901-9.152-2.189-18.287-4.397-27.223c-0.857-3.473-1.769-10.425-3.802-13.957
			c-2.369-4.116-6.796-9.556-13.395-0.175c-3.457,4.914-4.02,15.217-4.327,21.002c-0.419,7.905-0.342,15.817,0.393,23.7
			c0.81,8.686,2.475,17.25,3.602,25.895c1.112,8.534,0.452,17.101,0.21,25.668c-0.092,3.263-0.234,6.443-0.499,9.691
			c-0.183,2.249,0.552,4.071,2.564,5.155c4.405,2.376,10.94,3.342,14.657,0.311c3.385-2.762,3.778-7.716,4.307-11.745
			C352.4,222.702,352.463,203.439,350.535,183.874z"/>
		<path style="fill:#FECAB3;" d="M308.52,102.109c-1.259,1.971-1.885,4.727-1.958,6.954c-0.176,5.415,4.358,3.839,6.238,0.988
			c1.42-2.154,2.15-5.04,2.171-5.885C315.068,100.32,311.979,96.698,308.52,102.109z"/>
		<path style="fill:#FECAB3;" d="M214.672,103.909c-0.26-1.647-0.873-3.179-1.281-4.789c-0.616-2.434-0.595-4.888-0.164-7.342
			c0.389-2.209,1.598-5.203,0.23-7.317c-1.58-2.44-4.7-6.221-7.801-6.448c-1.773-0.13-3.989,0.231-5.407,1.341
			c-0.384,0.301-0.727,0.728-1.021,1.226c-0.813,0.281-1.575,0.647-1.909,0.85c-0.493,0.3-0.703,0.852-0.844,1.416
			c-0.598,0.283-1.108,0.673-1.387,1.157c-0.884,1.539-1.165,4.184-0.778,5.9c0.389,1.729,2.026,3.205,3.499,4.073
			c0.57,0.335,1.275,0.266,2.009-0.001c0.9,5.358,3.977,6.798,4.599,8.035c0.743,1.482,1.026,4.094,1.855,5.485
			C207.275,109.173,215.162,107.021,214.672,103.909z"/>
		<path style="fill:#F78C17;" d="M313.207,90.874c-0.241-3.63-0.778-7.156-2.455-10.421c-3.099-6.037-9.931-8.261-16.269-8.642
			c-14.132-0.849-25.877,10.629-23.867,24.52c0.284,1.965,0.791,1.813,1.12-0.292c0.424-2.719,1.176-5.441,2.979-7.54
			c3.192-3.712,8.688-4.51,13.267-4.721c4.031-0.185,7.989-0.178,11.998-0.723c0.824-0.112,1.753-0.259,2.671-0.484
			c0.175,1.872,0.905,3.768,1.734,5.352c2.08,3.974,4.84,7.32,6.056,11.529c0.702,2.436,0.413,3.517,1.918,0.416
			C313.657,97.191,313.395,93.678,313.207,90.874z"/>
		<path style="fill:#FF674A;" d="M284.52,136.579c-1.181,0.658-2.151,1.936-2.46,3.089c-0.349,1.301,0.13,3.366,0.836,4.961
			c-2.026,4.261-3.101,9.088-4.09,13.623c-1.302,5.97-2.107,12.044-2.867,18.103c-0.771,6.16-1.575,12.319-2.307,18.483
			c-0.725,6.105-1.769,12.776-1.241,19.003c0.054,0.632,0.136,1.735,1.344,3.048c0.603,0.657,1.343,1.222,2.078,1.767
			c1.875,1.391,1.629,1.319,3.621-0.117c0.945-0.681,1.912-1.352,2.754-2.137c1.078-1.003,1.118-0.767,0.953-2.565
			c-0.925-10.205-0.637-20.67-0.101-30.867c0.363-6.925,1.047-13.83,1.779-20.724c0.366-3.443,0.752-6.885,1.128-10.327
			c0.247-2.26,0.631-4.594,0.797-6.909c1.408-0.986,2.684-2.245,3.241-3.693c0.458-1.191-0.873-2.937-2.011-4.22
			C286.841,135.821,285.916,135.8,284.52,136.579z"/>
		<path style="fill:#BBBBBB;" d="M213.568,80.604c-0.378-0.214-1.056-0.184-1.812-0.054c-1.26,0.218-23.35,4.528-25.786,4.946
			c-0.26,0.045-0.488,0.157-0.682,0.31c-0.569,0.443-0.595,0.854-0.023,1.085c0.262,0.106,0.556,0.141,0.865,0.17
			c6.409-0.636,18.454-2.125,26.168-3.22c0.504-0.072,0.976-0.249,1.434-0.416C214.97,82.972,214.416,81.086,213.568,80.604z"/>
		<path style="fill:#FECAB3;" d="M205.929,87.189c-0.773-1.336-4.286-7.825-6.613-4.757c-1.248,1.645-1.182,3.64-0.33,5.434
			c0.578,1.215,1.74,2.195,2.619,3.18c0.925,1.037,1.396,2.141,1.647,3.337c1.08,5.162,6.242,3.333,7.027,2.329
			C213.143,93.043,207.499,89.904,205.929,87.189z"/>
		<path style="fill:#ED9A7A;" d="M328.438,266.635c-0.018-0.12-0.201-0.133-0.253-0.034c-0.779,1.509-0.503,3.211-0.508,4.85
			c-0.003,1.01-0.058,2.103-0.495,3.031c-0.36,0.764-1.035,0.92-1.788,0.864c0.061,0.092,0.119,0.185,0.197,0.27
			c0.252,0.275,0.551,0.512,0.871,0.726c0.847-0.179,1.583-0.712,1.939-1.696C329.281,272.205,328.807,269.141,328.438,266.635z"/>
		<g>
			<path style="fill:#774411;" d="M333.544,137.794c-8.576,3.004-9.305,15.968-9.749,23.442
				c-0.854,14.343,0.386,28.863,3.277,42.923c0.024,0.117,0.213,0.09,0.207-0.028c-0.66-13.356-2.712-26.523-2.169-39.939
				c0.348-8.603,0.679-20.722,8.567-26.084C333.83,138.003,333.738,137.726,333.544,137.794L333.544,137.794z"/>
		</g>
		<g>
			<path style="fill:#774411;" d="M273.821,226.456c-0.366,7.409,0.965,14.986,2.117,22.282c1.77,11.211,3.952,22.335,7.611,33.091
				c0.054,0.156,0.287,0.095,0.249-0.068c-2.478-10.542-4.708-21.193-6.56-31.864c-1.338-7.712-2.841-15.616-3.323-23.441
				C273.911,226.396,273.824,226.395,273.821,226.456L273.821,226.456z"/>
		</g>
	</g>
	<g>
		<g>
			<g>
				<path style="fill:#FF4F39;" d="M601.886,341.768c4.292,32.958,8.661,65.906,13.282,98.83c0.195,1.359,6.068,1.204,5.967-0.245
					c-2.31-32.829-4.549-65.665-6.979-98.491C614.138,341.625,601.858,341.563,601.886,341.768z"/>
				<path style="fill:#FF4F39;" d="M548.005,341.768c-4.293,32.958-8.662,65.906-13.283,98.83c-0.195,1.359-6.068,1.204-5.967-0.245
					c2.311-32.829,4.549-65.665,6.981-98.491C535.752,341.625,548.031,341.563,548.005,341.768z"/>
			</g>
			<g>
				<path style="fill:#BC3633;" d="M583.272,330.853c3.825,29.374,7.719,58.739,11.837,88.082c0.175,1.212,5.409,1.073,5.318-0.218
					c-2.06-29.259-4.054-58.524-6.22-87.78C594.192,330.726,583.248,330.67,583.272,330.853z"/>
				<path style="fill:#BC3633;" d="M566.619,330.853c-3.826,29.374-7.72,58.739-11.838,88.082c-0.175,1.212-5.409,1.073-5.318-0.218
					c2.06-29.259,4.054-58.524,6.222-87.78C555.7,330.726,566.644,330.67,566.619,330.853z"/>
			</g>
			<path style="fill:#7DF2E9;" d="M627.825,314.192c-2.905-2.976-7.239-4.012-11.591-4.471c-5.949-0.627-11.966-0.361-17.921,0.078
				c-5.494,0.405-41.242,0.405-46.737,0c-5.955-0.439-11.972-0.705-17.921-0.078c-4.352,0.459-8.685,1.495-11.59,4.471
				c-3.164,3.243-2.928,8.242-1.934,12.122c1.275,4.975,3.744,9.995,7.379,14.044c13.052,14.545,81.816,14.545,94.868,0
				c3.635-4.049,6.104-9.069,7.379-14.044C630.752,322.434,630.989,317.435,627.825,314.192z"/>
		</g>
		<g>
			<g>
				<path style="fill:#FF4F39;" d="M437.173,341.768c4.292,32.958,8.661,65.906,13.282,98.83c0.195,1.359,6.068,1.204,5.967-0.245
					c-2.311-32.829-4.549-65.665-6.979-98.491C449.425,341.625,437.146,341.563,437.173,341.768z"/>
				<path style="fill:#FF4F39;" d="M383.292,341.768c-4.293,32.958-8.662,65.906-13.283,98.83c-0.195,1.359-6.068,1.204-5.967-0.245
					c2.311-32.829,4.549-65.665,6.98-98.491C371.039,341.625,383.318,341.563,383.292,341.768z"/>
			</g>
			<g>
				<path style="fill:#BC3633;" d="M418.56,330.853c3.825,29.374,7.719,58.739,11.837,88.082c0.175,1.212,5.409,1.073,5.318-0.218
					c-2.06-29.259-4.054-58.524-6.22-87.78C429.479,330.726,418.535,330.67,418.56,330.853z"/>
				<path style="fill:#BC3633;" d="M401.906,330.853c-3.826,29.374-7.72,58.739-11.838,88.082c-0.175,1.212-5.409,1.073-5.318-0.218
					c2.06-29.259,4.054-58.524,6.222-87.78C390.987,330.726,401.931,330.67,401.906,330.853z"/>
			</g>
			<path style="fill:#7DF2E9;" d="M463.112,314.192c-2.905-2.976-7.239-4.012-11.591-4.471c-5.949-0.627-11.966-0.361-17.921,0.078
				c-5.494,0.405-41.242,0.405-46.737,0c-5.955-0.439-11.972-0.705-17.92-0.078c-4.353,0.459-8.686,1.495-11.591,4.471
				c-3.164,3.243-2.927,8.242-1.934,12.122c1.275,4.975,3.745,9.995,7.38,14.044c13.051,14.545,81.816,14.545,94.868,0
				c3.635-4.049,6.105-9.069,7.379-14.044C466.039,322.434,466.276,317.435,463.112,314.192z"/>
		</g>
		<path style="fill:#2E3D42;" d="M485.491,213.652c-2.04-7.816-4.101-15.525-5.503-23.497c-1.94-11.04-6.395-22.708-16.563-28.176
			c-7.936-4.269-19.866-4.725-27.198,1.062c-3.174,2.505-5.1,6.369-5.624,10.413c-0.473,3.635-0.505,7.294-0.673,10.952
			c-0.193,4.222-0.986,8.29-2.061,12.357c-1.836,6.938-4.111,13.774-4.803,20.965c-0.629,6.554,1.059,12.944,3.853,18.784
			c5.114,10.69,13.918,19.86,25.602,22.136c9.852,1.92,20.686-1.974,25.487-6.502c5.381-4.371,9.535-10.16,10.6-17.347
			C489.632,227.895,487.212,220.248,485.491,213.652z"/>
		<path style="fill:#99871C;" d="M430.661,211.568c-11.029-1.421-21.404,5.479-27.197,11.585c-5.403,5.696-9.242,13.75-12.92,19.915
			c-5.049,8.459-4.647,8.832-13.603,13.958c-2.763,1.58-11.313,8.041-13.534,9.652c-2.603,1.887-5.4,3.81-8.05,5.897
			c-4.925,3.879-4.241,9.618-1.192,13.875c4.736,6.614,18.05,4.308,22.289,2.631c2.436-0.964,17.225-9.432,24.7-14.733
			c9.757-6.921,12.738-11.49,17.311-17.856C428.315,242.777,438.535,212.583,430.661,211.568z"/>
		<path style="fill:#844B12;" d="M407.565,438.712c-0.59-1.486-1.042-3.038-1.423-4.589c-0.824-3.354-0.787-6.744-0.556-10.159
			c0.066-0.977-0.536-7.938-2.777-4.078c-0.528,0.909-2.154,3.371-3.246,5.459c-1.098,2.097-1.315,3.434,0.4,4.45
			c1.515,0.896,2.334,2.077,3.08,3.635c1.114,2.324,2.755,6.486,3.399,9.061c0.201,0.807,2.498-0.279,2.132-1.165
			C408.393,440.885,407.685,439.009,407.565,438.712z"/>
		<path style="fill:#A06928;" d="M404.477,418.15c-1.014-2.542-3.79-5.102-6.786-6.272c-4.808-1.881-7.348-1.308-9.722,5.729
			c-2.205,6.543-1.561,13.639-3.589,20.235c-0.9,2.93-11.626,16.022-3.595,16.425c2.144,0.107,12.333-5.027,15.182-6.802
			c1.645-1.022,2.347-2.706,2.447-4.559c0.223-4.097-0.258-7.971,1.537-11.869C401.876,426.859,406.483,423.188,404.477,418.15z"/>
		<path style="fill:#A06928;" d="M429.566,444.756c-0.403-5.598,1.249-11.371-0.747-16.798c-1.568-4.268-5.349-7.771-8.968-10.691
			c-2.936-2.369-8.433-3.092-9.619,4.351c-1.003,6.293-1.186,21.468-0.017,32.948c0.615,6.028,1.367,8.895,8.327,5.848
			c3.037-1.33,5.882-3.291,8.636-5.128C431.224,452.586,429.864,448.876,429.566,444.756z"/>
		<path style="fill:#473898;" d="M454.95,292.54c-2.504-8.182-12.507-10.326-19.825-11.49c-5.013-0.797-10.043-1.382-15.036-2.313
			c-3.427-0.64-7.013-1.473-10.598-1.908c-6.829-0.832-9.207-0.643-13.392,4.678c-2.706,3.439-4.662,7.395-7.023,11.064
			c-2.035,3.161-9.563,9.579-16.027,15.266c-10,8.794-11.285,14.376-3.67,21.791c3.633,3.539,9.011,5.853,13.367,7.256
			c5.43,1.748,11.159,2.527,16.738,3.63c7.308,1.444,14.576,2.362,21.997,1.213c6.064-0.94,12.316-1.975,17.815-4.83
			c4.66-2.42,8.306-6.377,10.919-10.874c2.835-4.879,4.254-10.529,5.011-16.074C455.972,304.487,456.588,297.886,454.95,292.54z"/>
		<path style="fill:#FBB396;" d="M362.906,318.147c-1.86,1.239-4.339,3.338-5.971,6.127c-4.71,8.052,4.915,19.423,15.069,17.818
			c3.819-0.603,7.632-1.834,10.635-2.72c4.307-1.27,8.566-2.831,12.536-4.947c4.986-2.659,9.544-9.527,1.922-12.845
			c-5.674-2.468-14.714-5.764-19.964-6.302C371.502,314.702,367.577,315.035,362.906,318.147z"/>
		<path style="fill:#FBB396;" d="M397.753,415.284c-0.434-2.996-2.931-4.966-4.362-7.576c-3.791-6.911-5.502-48.696-6.526-59.61
			c-0.752-8.009-2.17-14.189-9.086-19.232c-3.129-2.284-20.762-13.257-21.805-0.519c-0.267,3.26,0.436,6.727,1.02,9.916
			c1.453,7.945,3.738,15.876,6.247,23.548c5.008,15.314,10.989,28.762,15.189,44.352c0.804,2.984,3.803,8.884,4.313,14.942
			c0.598,7.125,0.301,15.164,0.166,19.401c-0.06,1.867,1.888,2.637,3.041,2.349c1.198-0.3,2.383-0.655,3.032-0.984
			c1.911-0.969,4.064-1.973,5.049-3.983c0.807-1.651,0.404-3.849,0.421-5.609c0.031-3.44,1.416-6.717,2.391-9.967
			C397.508,420.09,398.09,417.615,397.753,415.284z"/>
		<path style="fill:#FCCAB7;" d="M417.842,325.455c-2.253-2.761-5.635-4.515-9.065-5.663c-4.261-1.426-8.601-1.648-14.561,1.24
			c-2.14,1.036-4.189,2.267-6.098,3.412c-4.016,2.409-8.788,5.427-10.487,10c-1.784,4.799,0.665,10.132,5.096,12.362
			c4.419,2.224,10.059,1.098,14.666,0.145c4.607-0.952,9.213-2.156,13.581-3.919c3.377-1.362,7.439-3.271,9.139-6.711
			C421.864,332.777,420.146,328.28,417.842,325.455z"/>
		<path style="fill:#FCCAB7;" d="M427.519,438.422c-0.783-3.915-1.983-7.818-3.253-11.6c-1.809-5.389-4.407-10.509-5.978-15.969
			c-1.208-4.197-2.028-8.517-2.876-12.799c-1.797-9.084-3.269-18.23-5.108-27.306c-1.044-5.156-3.182-9.286-5.878-13.762
			c-3.065-5.087-4.021-10.746-6.218-16.179c-1.568-3.878-4.251-7.253-7.746-9.012c-5.423-2.729-10.52-3.6-12.738,2.686
			c-0.923,2.616-0.685,5.62-0.108,8.447c0.775,5.475,2.76,10.81,4.789,15.907c3.358,8.437,6.912,16.841,10.483,25.189
			c0.069,0.163,0.225,0.207,0.373,0.178c0.96,2.139,1.93,4.274,2.905,6.414c3.811,8.36,8.174,16.737,10.051,25.784
			c1.73,8.333,2.88,16.927,3.887,25.373c1.054,8.841,3.747,9.774,7.151,9.26c4.544-0.688,10.882-3.198,10.76-8.65
			C427.986,441.07,427.783,439.745,427.519,438.422z"/>
		<path style="fill:#B2A12B;" d="M408.637,224.593c-1.915,5.676-2.687,13.273-3.369,23.467c-0.358,5.364-1.388,12.353-4.877,22.293
			c-2.77,7.892,2.058,10.553,7.589,13.366c3.954,2.012,8.254,3.615,12.321,4.935c7.063,2.292,14.484,3.423,21.863,4.058
			c5.139,0.442,9.022-1.149,12.86-4.559c4.048-3.597,7.082-8.311,9.986-12.829c5.954-9.261,14.084-18.976,15.65-30.193
			c0.785-5.629-1.389-10.917-4.716-15.709c-1.223-1.761-10.926-16.003-24.503-19.461c-8.762-2.231-18.898-0.734-26.172,1.157
			C415.727,213.601,411.677,215.581,408.637,224.593z"/>
		<g>
			<path style="fill:#7F6C0B;" d="M433.742,213.378c-1.74,3.804-2.998,8.479-1.167,12.505c1.463,3.216,4.259,4.943,7.667,5.548
				c8.195,1.456,15.834-3.783,20.951-9.66c0.422-0.484-0.283-1.194-0.707-0.707c-4.471,5.135-10.243,9.247-17.213,9.558
				c-3.067,0.137-6.185-0.676-8.375-2.908c-3.607-3.676-2.177-9.712-0.293-13.831C434.872,213.3,434.01,212.792,433.742,213.378
				L433.742,213.378z"/>
		</g>
		<path style="fill:#2E3D42;" d="M438.607,167.053c-3.053,3.09-4.609,7.606-5.499,11.437c-1.595,6.875-0.82,13.991-2.561,20.815
			c-2.045,8.024-6.59,15.565-6.413,23.972c0.13,6.116,3.954,13.589,11.339,14.236c2.233,0.197,1.413-0.687,0.695-1.508
			c-7.581-8.665,2.604-24.449,8.631-37.289c3.448-7.347,6.483-16.027,6.45-24.579C451.224,167.267,444.555,161.03,438.607,167.053z"
			/>
		<path style="fill:#99871C;" d="M476.704,230.562c-7.373-7.369-12.952,4.653-16.823,16.675c-1.981,6.148-3.311,12.307-5.994,18.238
			c-1.638,3.624-4.241,7.936-6.237,12.434c-2.573,5.8,2.474,18.239,10.942,14.378c7.15-3.259,9.592-7.035,9.805-7.809
			c0.446-1.622,0.649-3.108,1.082-4.724c1.115-4.15,2.325-8.261,4.334-12.213c2.151-4.232,4.618-8.229,6.406-12.651
			c1.065-2.631,1.891-5.437,2.101-8.275C482.793,244.868,481.585,235.442,476.704,230.562z"/>
		<path style="fill:#844B12;" d="M593.479,443.758c-1.266-3.137-2.293-6.389-3.253-9.63c-1.005-3.39-1.523-8.792-1.605-12.293
			c-0.145-6.17-10.648-7.254-11.219-4.139c-0.151,0.824-0.256,1.759-0.343,2.694c-0.205,2.175-3.484,11.568-4.564,13.419
			c-0.775,1.329-1.101,11.062,0.324,15.527c1.453,4.554,4.359,7.241,9.146,7.998c3.295,0.521,9.013,0.047,11.705-2.148
			C597.278,452.244,594.878,447.226,593.479,443.758z"/>
		<path style="fill:#A06928;" d="M576.348,434.005c-0.078-1.878-1.147-3.86-1.959-5.511c-0.471-0.953-1.386-4.198-2.233-6.15
			c-2.115-4.87-10.227-0.658-11.712,2.128c-2.139,4.008-5.069,11.112-6.184,13.337c-1.888,3.764-5.036,7.895-4.284,12.395
			c0.602,3.599,2.042,5.651,5.778,6.105c4.432,0.537,10.303,1.554,14.085-1.444c1.315-1.043,1.842-2.891,2.34-4.408
			c0.933-2.839,1.975-5.637,2.819-8.505C575.734,439.45,576.458,436.639,576.348,434.005z"/>
		<path style="fill:#473898;" d="M614.063,315.085c-3.898-8.679-2.382-9.56-13.851-11.318c-15.694-2.413-43.998-2.478-55.432,1.273
			c-5.901,1.938-10.438,10.131-13.036,17.91c-6.181,18.496-4.462,30.422-0.403,45.726c3.059,11.528,8.491,22.407,13.224,33.289
			c2.616,6.019,4.525,12.434,7.648,18.217c2.215,4.102,5.881,8.002,10.823,8.193c7.742,0.3,12.703-10.401,11.081-16.9
			c-1.749-7.006-4.069-13.94-6.096-20.874c-2.271-7.77-4.709-15.493-7.613-23.052c-1.102-2.867-2.19-5.594-1.945-8.726
			c0.208-2.647,1.889-4.909,3.606-6.803c1.759-1.938,3.567-3.744,5.328-5.595c5.516-5.796,10.902-5.32,14.554-1.121
			c5.911,6.798,8.372,9.488,6.487,15.343c-3.678,11.439-9.001,25.398-10.05,37.327c-0.481,5.474-2.014,13.341-2.021,18.837
			c-0.007,4.729,8.338,9.922,8.735,10.017c1.934,0.462,4.024,0.281,6.018-0.557c3.621-1.521,5.733-4.551,7.322-7.979
			c7.293-15.739,13.296-32.245,18.722-48.775c0.923-2.812,1.829-5.624,2.722-8.433C624.021,348.066,622.938,334.837,614.063,315.085
			z"/>
		<path style="fill:#FF6645;" d="M588.049,173.253c-1.361-5.153-3.675-10.734-12.644-15.994c-6.148-3.605-15.672-3.676-21.677-2.521
			c-5.217,1.004-10.092,3.751-13.884,7.277c-3.833,3.561-5.803,8.205-6.69,13.11c-0.167,0.917,0.285,0.908,0.622-0.01
			c1.067-2.888,2.544-5.608,4.384-8.044c-5.234,22.876,13.882,36.45,18.413,39.695c6.057,4.335,11.441,3.991,16.973,1.82
			C584.161,204.419,592.338,189.473,588.049,173.253z"/>
		<path style="fill:#B2A12B;" d="M548.686,219.177c-5.649-1.209-13.938,5.433-17.056,9.011
			c-10.795,12.386-31.039,44.693-30.723,55.5c0.18,6.099,6.747,7.996,12.229,6.548c7.162-1.892,13.992-6.466,18.562-11.9
			c11.011-13.094,16.56-23.491,21.109-39.227C555.581,229.508,555.219,220.574,548.686,219.177z"/>
		<path style="fill:#B2A12B;" d="M639.593,263.957c-3.844-8.433-7.034-17.167-11.051-25.515
			c-5.962-12.387-7.597-14.42-19.354-20.669c-19.252-10.233-14.01,14.428-8.837,25.912c1.738,3.86,10.766,22.918,18.117,34.781
			c4.005,6.465,14.565,16.632,22.42,11.495c0.76-0.496,1.467-1.108,2.106-1.839C647.909,282.499,642.193,269.662,639.593,263.957z"
			/>
		<path style="fill:#99871C;" d="M612.357,222.622c-0.689-2.571-2.715-4.975-7.863-7.117c-7.603-3.163-22.402-6.795-27.158-7.383
			c-5.421-0.671-21.47,5.476-24.758,6.99c-2.535,1.169-7.037,3.303-10.581,5.22c-14.625,7.907-3.516,70.153-1.931,81.736
			c1.345,9.86,7.415,7.763,14.666,8.582c8.647,0.977,45.329,0.817,52.19-3.814c3.416-2.305,3.857-6.375,3.941-10.158
			c0.126-5.704,0.284-11.408,0.466-17.111c0.37-11.522,0.874-23.05,0.938-34.578C612.29,240.641,613.145,225.56,612.357,222.622z"/>
		<path style="fill:#FBB396;" d="M205.933,85.301c-0.828-0.367-1.395-1.077-2.144-1.556c-0.048-0.031-0.127,0.021-0.104,0.079
			c0.622,1.504,3.295,3.669,4.88,2.206c0.072-0.066,0.024-0.164-0.052-0.196C207.689,85.488,206.78,85.677,205.933,85.301z"/>
		<path style="fill:#B2A12B;" d="M594.641,242.023c-3.107-0.173-6.212-0.347-9.321-0.429c-2.852-0.072-3.503,0.418-3.815,3.834
			c-0.343,3.733-0.455,7.497-0.487,11.245c-0.015,1.847,0.442,2.772,1.793,3.622c1.306,0.821,2.668,1.563,4.01,2.33
			c2.513,1.439,2.688,1.288,4.736,0.208c1.504-0.794,2.933-1.71,4.379-2.616c1.243-0.777,1.834-1.814,1.846-3.42
			c0.03-3.831-0.017-7.665,0.042-11.498C597.868,242.323,597.655,242.189,594.641,242.023z"/>
		<g>
			<path style="fill:#7F6C0B;" d="M561.844,213.699c-2.756,1.377-5.542,3.563-5.823,6.882c-0.324,3.837,1.396,7.577,4.408,9.938
				c5.28,4.141,13.067,1.326,18.044-1.866c3.6-2.309,6.934-5.971,8.512-9.966c2.321-5.877-3.81-7.94-8.477-8.391
				c-0.642-0.062-0.636,0.938,0,1c2.541,0.245,5.887,0.642,7.458,2.956c1.041,1.533,0.364,3.59-0.35,5.095
				c-1.462,3.081-4.085,5.861-6.816,7.871c-4.104,3.021-9.771,5.219-14.873,3.927c-3.482-0.882-5.794-4.004-6.684-7.326
				c-1.163-4.346,1.404-7.407,5.106-9.257C562.925,214.274,562.418,213.411,561.844,213.699L561.844,213.699z"/>
		</g>
		<g>
			<path style="fill:#7F6C0B;" d="M537.008,227.119c-2.438,4.27-2.671,9.923-2.876,14.707c-0.307,7.169,0.099,14.373,0.659,21.519
				c0.857,10.929,2.37,21.69,4.229,32.481c0.021,0.126,0.231,0.097,0.223-0.03c-0.725-10.445-2.249-20.82-3.133-31.253
				c-0.595-7.02-0.994-14.061-0.94-21.109c0.041-5.43,0.25-11.071,1.945-16.27C537.136,227.101,537.041,227.063,537.008,227.119
				L537.008,227.119z"/>
		</g>
		<g>
			<path style="fill:#7F6C0B;" d="M612.65,228.305c-0.64,9.095-0.784,18.2-0.982,27.313c-0.243,11.21-0.644,22.408-0.757,33.621
				c-0.002,0.174,0.25,0.167,0.266,0c1.888-20.209,2.04-40.651,1.552-60.935C612.728,228.254,612.654,228.255,612.65,228.305
				L612.65,228.305z"/>
		</g>
		<g>
			<rect x="257.353" y="299.847" style="fill:#DEAC8A;" width="449.635" height="20.927"/>
			<polygon style="fill:#F8E4BB;" points="665.252,289.028 299.088,289.028 257.353,299.847 706.987,299.847 			"/>
		</g>
		<path style="fill:#FBB396;" d="M579.784,197.588c-0.718-1.02-1.596-1.787-2.678-2.033c-1.883-0.427-6.688,0.697-11.086,2.789
			c-4.954,2.355-9.395,5.939-8.565,9.918c0.836,4.017,3.866,12.443,4.492,13.376c1.876,2.8,4.393,4.598,8.028,3.881
			c3.864-0.762,12.505-8.168,13.345-13.269c0.151-0.918,0.163-1.856,0.085-2.809C583.282,207.945,581.295,199.735,579.784,197.588z"
			/>
		<path style="fill:#FCCAB7;" d="M558.928,163.466c-10.376,2.093-15.317,12.249-16.11,22.753
			c-0.843,11.134,4.303,22.703,10.555,25.469c6.525,2.889,20.722-0.7,25.108-10.902c1.6-3.723,2.693-8.525,2.935-14.679
			C581.947,172.469,578.544,159.509,558.928,163.466z"/>
		<path style="fill:#FCCAB7;" d="M578.826,183.936c-3.301,0.11-5.615,3.688-5.45,6.851c-0.037,1.241,0.374,2.594,0.804,3.614
			c1.504,3.569,3.7,4.612,5.662,4.448c1.08-0.091,2.068-0.919,2.881-2.039c1.677-2.304,2.675-10.041-1.439-12.289
			C580.558,184.126,579.736,183.906,578.826,183.936z"/>
		<path style="fill:#FF6645;" d="M583.956,169.738c-5.66-13.145-20.485-14.889-33.368-8.882c-4.107,1.916-5.632,4.479-5.738,7.079
			c-0.55,3.278,1.027,6.809,3.085,9.341c3.535,4.35,8.781,7.886,14.353,8.907c0.95,0.174,0.802-0.171-0.169-0.559
			c-1.826-0.73-2.643-1.35-4.798-2.612c5.31,1.963,10.595,1.37,13.988,1.427c2.575,0.043,4.938,0.527,5.787,2.46
			c3.896,8.89,7.379,4.408,8.143-2.608C585.825,178.9,585.621,173.608,583.956,169.738z"/>
		<path style="fill:#FBB396;" d="M560.905,282.89c-0.586-0.203-1.188-0.379-1.74-0.598c-1.094-0.434-2.191-0.648-3.345-0.572
			c-1.754,0.115-2.196,1.867-1.386,3.286c0.746,1.308,2.26,2.403,3.741,2.223c0.854-0.105,1.663-0.88,2.289-1.407
			C561.531,284.925,562.273,283.359,560.905,282.89z"/>
		<path style="fill:#FCCAB7;" d="M582.963,282.363c-3.065,0.259-6.057,0.43-9.171,0.243c-1.592-0.096-3.177-0.245-4.75-0.477
			c-5.661-0.831-10.046-0.626-13.268,2.295c-0.974,0.882-2.015,1.916-3.398,3.02c-0.722,0.576-4.386,2.578-5.241,2.813
			c-2.481,0.681-1.359,2.49,0.38,2.858c2.178,0.46,4.998-0.147,6.718-0.407c1.957-0.296,3.896-0.703,5.878-0.808
			c3.279-0.173,6.742,0.442,10.034,0.558c2.878,0.102,5.754,0,8.631,0.102c1.855,0.066,3.799,0.02,5.396-1.027
			c1.457-0.955,1.926-3.592,1.691-5.879C585.591,283.027,584.515,282.231,582.963,282.363z"/>
		<path style="fill:#B2A12B;" d="M538.431,278.837c-1.111-0.261-2.31-0.608-3.577-0.66c-5.994-0.247-11.839-1.616-14.552-2.403
			c-4.927-1.431-9.22-2.756-13.565,0.729c-2.802,2.247-6.182,6.962-4.954,10.713c0.56,1.707,2.291,2.566,3.857,3.105
			c3.072,1.058,6.44,1.441,9.652,1.819c6.137,0.721,12.756,1.336,18.901,0.406c2.191-0.331,4.806-1.011,6.906-2.29
			C545.505,287.574,544.41,280.24,538.431,278.837z"/>
		<path style="fill:#FBB396;" d="M540.522,278.235c-2.918-1.079-6.354,0.946-8.738,2.416c-3.375,2.08-10.469,6.942-6.602,9.895
			c3.168,2.417,7.551,2.099,11.326,1.987c2.735-0.082,6.582-0.779,8.185-3.308C547.234,285.216,544.779,279.812,540.522,278.235z"/>
		<path style="fill:#FBB396;" d="M546.308,262.157c-0.772-1.17-3.472-2.873-4.464-0.948c-0.582,1.133-0.554,2.242-0.376,3.492
			c0.171,1.209,0.184,3.529,0.246,4.943c0.085,1.848,5.192,2.469,5.617,1.068C548.186,267.865,548.031,264.77,546.308,262.157z"/>
		<path style="fill:#FCCAB7;" d="M552.228,282.116c-0.257-0.554-0.7-1.001-1.224-1.379c0.88-1.071,0.8-2.715,0.021-4.036
			c0.542-1.29,0.292-2.836-0.586-4.08c-1.744-2.471-5.034-3.425-7.878-3.647c-1.965-0.155-5.038-0.58-6.596,0.97
			c-0.567,0.564-0.868,1.538-0.973,2.607c-0.855,0.329-1.635,0.796-2.235,1.494c-0.704,0.817-1.156,2.664-1.059,4.291
			c0.044,0.738-0.017,4.169-0.032,5.281c-0.012,0.787,0.067,1.565,0.257,2.304c0.702,2.748,3.816,3.115,6.158,3.176
			c2.727,0.069,6.236,0.574,8.71-0.84c1.188-0.679,1.72-1.97,1.831-3.343c0.453,0.006,0.902-0.01,1.336-0.083
			C551.174,284.628,552.895,283.555,552.228,282.116z"/>
		<path style="fill:#B2A12B;" d="M642.183,280.428c-3.236-4.571-8.873-6.102-14.19-6.441c-7.679-0.489-15.517,1.881-23.096,2.807
			c-3.833,0.469-7.685,0.769-11.516,1.254c-2.682,0.339-5.369,0.76-8.066,1.033c-3.433,0.351-4.475,1.418-4.616,4.411
			c-0.141,2.959-0.32,5.999,1.54,8.384c1.256,1.61,3.714,1.499,5.513,1.456c3.632-0.086,7.256,0.213,10.894,0.094
			c7.97-0.265,15.958-0.292,23.931-0.443c6.111-0.114,12.816,0.064,18.325-2.995C644.786,287.829,644.451,283.635,642.183,280.428z"
			/>
		<path style="fill:#99871C;" d="M465.093,276.599c-3.963-2.77-9.938-3.423-14.643-3.254c-3.729,0.133-7.618,1.039-11.012,2.754
			c-7.313,3.695-3.949,14.724-0.52,16.718c3.186,1.853,7.181,1.898,9.799,1.66c2.394-0.219,4.775-0.676,7.065-1.276
			c4.134-1.085,8.319-3.283,11.217-6.446C470.191,283.268,468.604,279.055,465.093,276.599z"/>
		<path style="fill:#FBB396;" d="M443.197,274.582c-0.682-0.452-1.372-0.891-1.973-1.434c-0.881-0.799-1.623-1.733-2.544-2.493
			c-1.074-0.888-2.6-0.964-3.036,0.64c-0.56,2.056,0.767,4.191,2.285,5.482c1.291,1.099,2.825,0.956,4.311,0.49
			C443.053,277.011,445.725,276.257,443.197,274.582z"/>
		<path style="fill:#FCCAB7;" d="M433.027,289.03c0.086-0.143,0.186-0.257,0.286-0.374c-0.75-0.895-0.347-2.922,0.218-3.758
			c0.138-0.203,0.309-0.376,0.49-0.534c-0.124-0.037-0.236-0.12-0.305-0.229c-0.792-1.251-0.81-2.561,0.164-3.708
			c0.198-0.234,0.467-0.453,0.769-0.643c-0.856-1.345-0.62-3.339,1.013-4c2.822-1.143,5.943-1.66,8.486-1.344
			c1.525,0.19,2.843,0.682,3.763,1.518c0.947,0.861,1.469,2.133,1.186,3.788c-0.133,0.784-0.936,1.798-1.004,2.576
			c-0.11,1.263,0.028,2.465,0.217,3.672c0.597,3.773-0.102,7.81-4.47,8.44c-1.588,0.23-3.191,0.224-4.835-0.006
			c-1.471-0.206-3.685-0.46-4.86-1.46C433.188,292.154,432.28,290.271,433.027,289.03z"/>
		<path style="fill:#FCCAB7;" d="M355.151,278.926c-1.904,0.845-3.741,1.904-5.697,2.595c-2.9,1.024-6.139,0.367-9.131,0.605
			c-4.248,0.341-8.317,1.815-11.993,4.243c-7.677,5.067-0.316,4.95,2.185,4.916c1.372-0.02,2.74-0.135,4.111-0.134
			c1.896,0.002,3.801,0.792,5.641,1.267c5.256,1.355,9.933,0.012,14.909-1.914c1.221-0.473,4.307-1.468,6.484-2.997
			C364.464,285.539,358.005,276.259,355.151,278.926z"/>
		<path style="fill:#FBB396;" d="M458.093,211.432c-0.887-5.904-1.127-12.047-2.716-17.827c-1.161-4.229-7.139-1.717-9.674-0.662
			c-6.06,2.526-10.659,2.467-9.909,7.109c0.572,3.549,1.071,8.256,0.232,18.642c-0.454,5.62,2.138,7.528,5.527,7.741
			C447.688,226.818,459.7,222.149,458.093,211.432z"/>
		<path style="fill:#2E3D42;" d="M480.381,209.776c-0.404-5.216-1.448-10.352-2.368-15.493c-0.84-4.686-1.975-9.219-4.194-13.458
			c-2.004-3.832-5.729-8.612-9.113-11.208c-3.226-2.474-16.324-9.927-10.956-0.94c1.359,2.281,2.5,4.554,3.26,7.264
			c0.994,3.552,1.147,7.296,0.976,10.96c-0.381,8.141-3.559,15.37-5.964,23.026c-1.052,3.349-1.902,7.144-1.337,10.666
			c0.573,3.559,2.211,6.566,4.153,9.557c2.232,3.438,4.784,6.692,5.117,10.924c0.264,3.359-1.206,6.531-3.219,9.196
			c-0.632,0.834-4.372,4.592,0.487,2.267c0.827-0.398,1.614-0.941,2.484-1.371c2.219-1.093,4.333-2.349,6.331-3.809
			c3.411-2.493,6.322-5.69,8.679-9.183C480.275,229.931,481.13,219.423,480.381,209.776z"/>
		<path style="fill:#FCCAB7;" d="M460.771,169.67c-4.159-5.158-12.027-6.65-18.256-4.464c-6.245,2.19-8.855,5.766-8.963,9.771
			c-0.071,2.667-0.909,4.162-1.801,5.167c-0.8,0.902-4.361,3.029-4.069,15.462c0.226,9.645,10.128,7.23,15.303,6.854
			c3.142-0.229,6.003-0.988,8.615-2.782c2.319-1.594,4.213-3.851,5.902-6.073c1.96-2.578,3.985-5.113,5.233-8.136
			C465.038,179.894,464.604,174.423,460.771,169.67z"/>
		<path style="fill:#2E3D42;" d="M463.477,171.634c-1.55-3.669-4.816-6.145-8.746-7.152c-1.775-0.454-6.256-1.432-9.306-0.92
			c-2.54,0.426-2.661,1.746-2.061,3.747c1.07,3.555,3.965,6.608,6.38,9.351c3.636,4.13,7.101,8.505,7.158,13.956
			c0.02,1.926-0.014,2.438,1.748,1.185C464.621,187.556,466.062,177.754,463.477,171.634z"/>
		<path style="fill:#FCCAB7;" d="M455.787,189.3c-2.549,2.127-3.991,6.914-1.137,9.379c3.793,3.274,8.679-1.333,9.727-5.042
			C465.779,188.675,462.584,183.629,455.787,189.3z"/>
		<g>
			<path style="fill:#7F6C0B;" d="M446.757,273.843c6.543-0.612,15.266-0.363,20.231,4.708c0.117,0.119,0.307-0.033,0.228-0.176
				c-3.715-6.661-14.054-6.656-20.472-4.624C446.696,273.766,446.702,273.848,446.757,273.843L446.757,273.843z"/>
		</g>
		<g>
			<path style="fill:#7F6C0B;" d="M422.936,211.72c-6.576,0.526-11.432,5.17-14.015,11.003c-2.774,6.266-3.896,14.222-3.422,20.974
				c0.008,0.106,0.154,0.105,0.164,0c0.412-4.295,1.42-8.476,2.211-12.708c0.406-2.175,0.904-4.301,1.647-6.39
				c2.307-6.484,7.017-10.572,13.423-12.818C422.976,211.77,422.973,211.717,422.936,211.72L422.936,211.72z"/>
		</g>
	</g>
	<g>
		<g>
			<path style="fill:#8BAFE8;" d="M578.353,55.249h-3.124c-0.319-1.716-0.992-3.307-1.942-4.693l2.207-2.208
				c0.442-0.442,0.442-1.159,0-1.601l-1.61-1.61c-0.441-0.442-1.158-0.442-1.601,0l-2.207,2.208
				c-1.388-0.951-2.979-1.624-4.694-1.944v-3.124c0-0.625-0.507-1.132-1.132-1.132h-2.277c-0.625,0-1.132,0.507-1.132,1.132v3.124
				c-1.716,0.32-3.307,0.992-4.693,1.944l-2.208-2.208c-0.442-0.442-1.159-0.442-1.601,0l-1.611,1.61
				c-0.441,0.442-0.441,1.159,0,1.601l2.209,2.208c-0.951,1.387-1.624,2.977-1.943,4.693h-3.124c-0.625,0-1.132,0.507-1.132,1.132
				v2.277c0,0.625,0.507,1.132,1.132,1.132h3.124c0.319,1.716,0.992,3.307,1.943,4.693l-2.208,2.208
				c-0.442,0.442-0.442,1.159,0,1.602l1.61,1.61c0.441,0.442,1.158,0.442,1.601,0l2.208-2.209c1.387,0.952,2.978,1.624,4.693,1.944
				v3.124c0,0.625,0.507,1.131,1.132,1.131h2.277c0.625,0,1.132-0.506,1.132-1.131v-3.124c1.716-0.32,3.307-0.992,4.693-1.944
				l2.208,2.209c0.442,0.442,1.159,0.442,1.601,0l1.611-1.61c0.441-0.442,0.441-1.159,0-1.601l-2.208-2.209
				c0.95-1.386,1.623-2.977,1.942-4.693h3.124c0.625,0,1.132-0.507,1.132-1.132v-2.277
				C579.484,55.756,578.978,55.249,578.353,55.249z M572.012,57.52c0,4.916-3.985,8.902-8.901,8.902s-8.901-3.986-8.901-8.902
				c0-4.916,3.985-8.902,8.901-8.902S572.012,52.604,572.012,57.52z"/>
			<path style="fill:#A2BFF9;" d="M397.083,48.727h-3.377c-0.347-1.856-1.074-3.577-2.102-5.076l2.389-2.389
				c0.478-0.478,0.478-1.253,0-1.73l-1.742-1.742c-0.478-0.478-1.253-0.478-1.73,0l-2.388,2.389c-1.5-1.029-3.222-1.757-5.076-2.103
				v-3.378c0-0.675-0.549-1.224-1.226-1.224h-2.461c-0.677,0-1.226,0.548-1.226,1.224v3.378c-1.855,0.346-3.576,1.073-5.076,2.103
				l-2.388-2.389c-0.478-0.478-1.253-0.478-1.731,0l-1.742,1.742c-0.478,0.478-0.478,1.252,0,1.73l2.388,2.389
				c-1.027,1.5-1.755,3.219-2.102,5.076h-3.378c-0.676,0-1.224,0.548-1.224,1.224v2.463c0,0.676,0.548,1.225,1.224,1.225h3.378
				c0.347,1.856,1.075,3.576,2.102,5.075l-2.388,2.388c-0.478,0.478-0.478,1.253,0,1.731l1.742,1.742
				c0.478,0.478,1.253,0.478,1.731,0l2.388-2.389c1.5,1.029,3.221,1.756,5.076,2.103v3.378c0,0.676,0.549,1.223,1.226,1.223h2.461
				c0.677,0,1.226-0.547,1.226-1.223v-3.378c1.854-0.347,3.576-1.074,5.076-2.103l2.388,2.389c0.478,0.478,1.253,0.478,1.73,0
				l1.742-1.742c0.478-0.478,0.478-1.253,0-1.731l-2.389-2.389c1.028-1.5,1.756-3.22,2.102-5.075h3.377
				c0.677,0,1.225-0.548,1.225-1.225v-2.463C398.309,49.275,397.76,48.727,397.083,48.727z M390.227,51.183
				c0,5.316-4.31,9.628-9.627,9.628s-9.627-4.311-9.627-9.628c0-5.317,4.311-9.627,9.627-9.627S390.227,45.866,390.227,51.183z"/>
			<path style="fill:#A2BFF9;" d="M686.576,207.024h-2.388c-0.245-1.313-0.76-2.529-1.486-3.588l1.688-1.689
				c0.338-0.338,0.338-0.886,0-1.224l-1.232-1.231c-0.338-0.338-0.886-0.338-1.224,0l-1.689,1.689
				c-1.06-0.727-2.277-1.242-3.589-1.486v-2.389c0-0.477-0.388-0.865-0.866-0.865h-1.74c-0.478,0-0.866,0.388-0.866,0.865v2.389
				c-1.312,0.244-2.528,0.758-3.589,1.486l-1.688-1.689c-0.338-0.338-0.886-0.338-1.224,0l-1.231,1.231
				c-0.338,0.338-0.338,0.886,0,1.224l1.688,1.689c-0.727,1.06-1.241,2.276-1.486,3.588h-2.389c-0.478,0-0.865,0.388-0.865,0.865
				v1.742c0,0.478,0.388,0.866,0.865,0.866h2.389c0.245,1.312,0.76,2.528,1.486,3.588l-1.688,1.688
				c-0.338,0.338-0.338,0.886,0,1.224l1.231,1.231c0.338,0.338,0.886,0.338,1.224,0l1.688-1.689
				c1.061,0.727,2.277,1.242,3.589,1.487v2.389c0,0.477,0.388,0.864,0.866,0.864h1.74c0.479,0,0.866-0.387,0.866-0.864v-2.389
				c1.312-0.245,2.528-0.759,3.589-1.487l1.689,1.689c0.338,0.338,0.886,0.338,1.224,0l1.232-1.231c0.338-0.338,0.338-0.886,0-1.224
				l-1.688-1.689c0.727-1.06,1.241-2.276,1.486-3.588h2.388c0.479,0,0.866-0.388,0.866-0.866v-1.742
				C687.442,207.412,687.055,207.024,686.576,207.024z M681.729,208.76c0,3.759-3.048,6.807-6.807,6.807s-6.807-3.048-6.807-6.807
				c0-3.759,3.048-6.807,6.807-6.807S681.729,205.001,681.729,208.76z"/>
			<path style="fill:#C0D6F9;" d="M663.101,186.978h-4.313c-0.443-2.371-1.373-4.569-2.686-6.483l3.051-3.052
				c0.61-0.61,0.61-1.6,0-2.21l-2.226-2.225c-0.61-0.61-1.6-0.61-2.21,0l-3.051,3.052c-1.916-1.314-4.114-2.244-6.484-2.686v-4.315
				c0-0.863-0.7-1.563-1.565-1.563h-3.145c-0.864,0-1.564,0.701-1.564,1.563v4.315c-2.37,0.441-4.568,1.37-6.484,2.686l-3.051-3.052
				c-0.61-0.61-1.6-0.61-2.21,0l-2.226,2.225c-0.61,0.61-0.61,1.6,0,2.21l3.051,3.052c-1.313,1.915-2.242,4.112-2.685,6.483h-4.315
				c-0.862,0-1.564,0.7-1.564,1.563v3.147c0,0.864,0.701,1.564,1.564,1.564h4.315c0.443,2.37,1.373,4.568,2.685,6.483l-3.051,3.051
				c-0.61,0.61-0.61,1.601,0,2.211l2.226,2.225c0.61,0.611,1.6,0.611,2.21,0l3.051-3.051c1.916,1.314,4.114,2.244,6.484,2.686v4.316
				c0,0.863,0.7,1.561,1.564,1.561h3.145c0.864,0,1.565-0.699,1.565-1.561v-4.316c2.37-0.442,4.568-1.372,6.484-2.686l3.051,3.051
				c0.61,0.611,1.6,0.611,2.21,0l2.226-2.225c0.61-0.61,0.61-1.601,0-2.211l-3.051-3.051c1.313-1.915,2.242-4.113,2.686-6.483h4.313
				c0.864,0,1.565-0.7,1.565-1.564v-3.147C664.665,187.678,663.965,186.978,663.101,186.978z M654.342,190.115
				c0,6.79-5.506,12.297-12.297,12.297s-12.298-5.506-12.298-12.297c0-6.792,5.507-12.298,12.298-12.298
				S654.342,183.323,654.342,190.115z"/>
		</g>
		<g>
			<path style="fill:#C0D6F9;" d="M505.701,61.129c-22.332,0.149-44.452,13.666-44.452,40.837c0,20.117,11.492,32.961,26.272,38.632
				c-3.578,4.629-7.014,9.354-10.359,14.155c-2.432,3.488-8.333,10.28,3.298,3.123c7.488-4.61,14.989-9.201,22.342-14.019
				c0.965,0.059,1.932,0.102,2.899,0.11c22.742,0.176,45.697-13.912,45.697-42.001C551.398,74.689,528.443,60.975,505.701,61.129z"
				/>
			<g>
				<path style="fill:#A06928;" d="M513.151,120.492c-0.258-0.732-0.775-1.294-1.781-1.56c-0.195-0.053-9.287-0.053-9.482,0
					c-1.006,0.266-1.523,0.828-1.781,1.56c-0.426,1.211-0.199,5.995-0.064,6.689c0.133,0.699,0.396,1.355,0.898,1.989
					c0.885,1.125,2.605,1.93,4.111,2.617c1.645,0.754,1.559,0.732,3.19-0.015c1.496-0.684,3.195-1.486,4.076-2.602
					c0.502-0.634,0.766-1.291,0.9-1.989C513.351,126.487,513.577,121.703,513.151,120.492z"/>
				<path style="fill:#F78C17;" d="M518.741,88.522c-6.41-6.781-18.471-6.783-24.881,0c-4.697,4.967-5.723,17.306,1.232,23.637
					c1.465,1.333,4.936,2.8,6.297,8.601c0.281,1.197,9.543,1.194,9.824-0.005c1.361-5.798,4.832-7.265,6.295-8.596
					C524.464,105.828,523.438,93.489,518.741,88.522z"/>
				<g>
					<path style="fill:#FFE8C7;" d="M509.169,78.254c-0.718-1.774-1.548-3.485-2.521-5.143c-0.233-0.396-0.369-0.552-0.695,0
						c-0.974,1.657-1.803,3.368-2.521,5.143c-0.523,1.294-0.255,1.467,0.753,1.534c0.701,0.045,3.531,0.045,4.232,0
						C509.425,79.722,509.692,79.549,509.169,78.254z"/>
					<g>
						<g>
							<path style="fill:#FFE8C7;" d="M496.8,80.195c-1.52-1.167-3.101-2.222-4.779-3.156c-0.402-0.224-0.599-0.289-0.601,0.352
								c0.002,1.923,0.155,3.817,0.434,5.712c0.205,1.381,0.522,1.394,1.425,0.941c0.63-0.317,3.07-1.75,3.651-2.146
								C497.766,81.328,497.908,81.045,496.8,80.195z"/>
							<path style="fill:#FFE8C7;" d="M487.219,88.43c-1.911,0.074-3.803,0.271-5.694,0.623c-0.449,0.085-0.643,0.16-0.236,0.654
								c1.229,1.479,2.559,2.839,3.983,4.118c1.039,0.932,1.291,0.74,1.697-0.185c0.282-0.646,1.241-3.306,1.438-3.983
								C488.687,88.687,488.616,88.377,487.219,88.43z"/>
							<path style="fill:#FFE8C7;" d="M489.311,113.978c-0.68,1.789-1.235,3.606-1.649,5.484c-0.098,0.45-0.104,0.655,0.512,0.474
								c1.841-0.553,3.609-1.244,5.344-2.057c1.266-0.592,1.186-0.9,0.493-1.635c-0.484-0.512-2.556-2.436-3.104-2.879
								C490.122,112.727,489.808,112.672,489.311,113.978z"/>
							<path style="fill:#FFE8C7;" d="M484.732,101.753c-1.607,1.037-3.134,2.17-4.579,3.438c-0.345,0.305-0.471,0.466,0.128,0.684
								c1.812,0.646,3.649,1.141,5.527,1.514c1.368,0.274,1.487-0.021,1.364-1.023c-0.087-0.7-0.614-3.478-0.79-4.159
								C486.129,101.226,485.909,100.997,484.732,101.753z"/>
						</g>
						<g>
							<path style="fill:#FFE8C7;" d="M515.848,80.195c1.519-1.167,3.101-2.222,4.78-3.156c0.401-0.224,0.598-0.289,0.6,0.352
								c-0.002,1.923-0.155,3.817-0.434,5.712c-0.205,1.381-0.523,1.394-1.425,0.941c-0.63-0.317-3.07-1.75-3.651-2.146
								C514.882,81.328,514.739,81.045,515.848,80.195z"/>
							<path style="fill:#FFE8C7;" d="M525.429,88.43c1.911,0.074,3.803,0.271,5.694,0.623c0.449,0.085,0.643,0.16,0.236,0.654
								c-1.229,1.479-2.56,2.839-3.983,4.118c-1.038,0.932-1.291,0.74-1.696-0.185c-0.282-0.646-1.241-3.306-1.438-3.983
								C523.961,88.687,524.031,88.377,525.429,88.43z"/>
							<path style="fill:#FFE8C7;" d="M523.337,113.978c0.68,1.789,1.235,3.606,1.649,5.484c0.097,0.45,0.104,0.655-0.512,0.474
								c-1.841-0.553-3.61-1.244-5.344-2.057c-1.266-0.592-1.186-0.9-0.493-1.635c0.484-0.512,2.556-2.436,3.104-2.879
								C522.526,112.727,522.84,112.672,523.337,113.978z"/>
							<path style="fill:#FFE8C7;" d="M527.915,101.753c1.606,1.037,3.134,2.17,4.579,3.438c0.345,0.305,0.471,0.466-0.128,0.684
								c-1.812,0.646-3.649,1.141-5.527,1.514c-1.368,0.274-1.487-0.021-1.364-1.023c0.087-0.7,0.614-3.478,0.79-4.159
								C526.519,101.226,526.738,100.997,527.915,101.753z"/>
						</g>
					</g>
				</g>
				<path style="fill:#774411;" d="M508.04,95.442c-0.383,0.164-0.744,0.394-1.084,0.666c-0.537-0.627-1.121-1.162-1.725-1.537
					c-3.094-1.923-6.594,0.012-7.83,3.145c-0.965,2.447-0.813,4.425,0.563,6.665c1.607,2.625,4.883,3.755,5.723,6.865
					c0.68,2.515,0.385,5.551,0.514,8.14c0.036,0.73,0.059,1.461,0.091,2.191c0.162,0.013,0.325,0.024,0.494,0.034
					c-0.115-2.602-0.239-5.203-0.325-7.808c-0.047-1.479-0.199-2.892-0.865-4.228c-0.883-1.773-2.971-2.889-4.299-4.301
					c-2.656-2.825-2.555-6.561-0.107-9.466c1.494-1.774,3.873-1.795,5.787-0.801c0.473,0.245,1.033,0.771,1.586,1.446
					c-1.848,1.786-2.797,5.002-1.666,7.167c1.188,2.271,4.475,1.092,4.584-1.203c0.088-1.848-0.844-4.118-2.162-5.844
					c0.896-0.693,1.994-1.116,3.225-1.142c4.137-0.088,5.076,4.288,4.215,7.438c-0.815,2.972-3.158,4.523-5.457,6.259
					c-2.535,1.916-1.654,5.908-1.666,8.664c-0.004,1.276,0.007,2.551,0.011,3.827c0.174-0.009,0.346-0.017,0.514-0.029
					c-0.005-2.468-0.008-4.935-0.019-7.404c-0.01-2.067,0.076-3.609,1.834-4.938c0.832-0.627,1.705-1.171,2.5-1.846
					c1.922-1.633,2.935-4.159,3.182-6.611C516.081,96.555,511.788,93.835,508.04,95.442z M508.243,104.013
					c-1.207,0.87-2.781-0.142-3.193-1.295c-0.346-0.969-0.078-2.102,0.197-3.048c0.318-1.09,0.906-2.026,1.676-2.748
					C508.61,99.206,510.019,102.732,508.243,104.013z"/>
			</g>
		</g>
		<g>
			<path style="fill:#FFFFFF;" d="M639.968,40.063c-29.555,0-53.6,24.044-53.6,53.599s24.045,53.6,53.6,53.6
				c29.554,0,53.599-24.045,53.599-53.6S669.521,40.063,639.968,40.063z"/>
			<g>
				<path style="fill:#C0D6F9;" d="M639.968,149.453c-30.763,0-55.79-25.027-55.79-55.79s25.027-55.789,55.79-55.789
					c30.762,0,55.789,25.027,55.789,55.789S670.729,149.453,639.968,149.453z M639.968,41.873c-28.557,0-51.79,23.233-51.79,51.789
					c0,28.557,23.233,51.79,51.79,51.79c28.557,0,51.789-23.233,51.789-51.79C691.757,65.106,668.524,41.873,639.968,41.873z"/>
			</g>
			<path style="fill:#C0D6F9;" d="M661.065,80.828c-0.575-0.945-1.808-1.244-2.748-0.669L640.762,90.84l-15.134-29.318
				c-0.507-0.981-1.714-1.368-2.694-0.86c-0.981,0.507-1.367,1.713-0.86,2.695l16.117,31.224c0.009,0.016,0.021,0.027,0.03,0.043
				c0.015,0.026,0.022,0.054,0.038,0.079c0.044,0.072,0.103,0.126,0.153,0.19c0.048,0.061,0.091,0.125,0.145,0.179
				c0.077,0.077,0.163,0.138,0.25,0.201c0.056,0.04,0.106,0.087,0.166,0.121c0.103,0.059,0.213,0.099,0.324,0.139
				c0.053,0.019,0.102,0.047,0.156,0.062c0.168,0.045,0.342,0.07,0.517,0.07c0.166,0,0.332-0.025,0.497-0.067
				c0.055-0.014,0.105-0.04,0.159-0.06c0.087-0.03,0.175-0.053,0.259-0.096c0.026-0.014,0.048-0.033,0.073-0.048
				c0.016-0.009,0.033-0.012,0.049-0.021l19.389-11.796C661.34,83.002,661.64,81.771,661.065,80.828z"/>
			<g>
				<path style="fill:#7A9DF5;" d="M645.007,93.663c0,2.783-2.257,5.04-5.039,5.04c-2.783,0-5.04-2.256-5.04-5.04
					c0-2.783,2.257-5.04,5.04-5.04C642.75,88.623,645.007,90.88,645.007,93.663z"/>
			</g>
			<g>
				<g>
					<g>
						<path style="fill:#7A9DF5;" d="M639.967,47.863c-1.104,0-2,0.896-2,2v0.656c0,1.104,0.896,2,2,2c1.104,0,2-0.896,2-2v-0.656
							C641.967,48.758,641.071,47.863,639.967,47.863z"/>
					</g>
					<g>
						<path style="fill:#7A9DF5;" d="M639.967,136.196c-1.104,0-2,0.895-2,2v0.656c0,1.105,0.896,2,2,2c1.104,0,2-0.895,2-2v-0.656
							C641.967,137.092,641.071,136.196,639.967,136.196z"/>
					</g>
				</g>
				<g>
					<g>
						<path style="fill:#7A9DF5;" d="M686.462,94.357c0-1.104-0.896-2-2-2h-0.656c-1.104,0-2,0.896-2,2c0,1.104,0.896,2,2,2h0.656
							C685.566,96.357,686.462,95.462,686.462,94.357z"/>
					</g>
					<g>
						<path style="fill:#7A9DF5;" d="M598.128,94.357c0-1.104-0.896-2-2-2h-0.656c-1.104,0-2,0.896-2,2c0,1.104,0.896,2,2,2h0.656
							C597.232,96.357,598.128,95.462,598.128,94.357z"/>
					</g>
				</g>
			</g>
			<g>
				<g>
					<g>
						<path style="fill:#7A9DF5;" d="M672.844,61.481c-0.781-0.781-2.048-0.781-2.828,0l-0.465,0.464
							c-0.78,0.781-0.78,2.047,0,2.829c0.781,0.781,2.048,0.781,2.829,0l0.464-0.464C673.625,63.528,673.625,62.262,672.844,61.481z
							"/>
					</g>
					<g>
						<path style="fill:#7A9DF5;" d="M610.383,123.942c-0.781-0.781-2.048-0.781-2.829,0l-0.464,0.464
							c-0.781,0.781-0.781,2.047,0,2.828c0.781,0.781,2.048,0.781,2.828,0l0.465-0.464
							C611.163,125.989,611.163,124.723,610.383,123.942z"/>
					</g>
				</g>
				<g>
					<g>
						<path style="fill:#7A9DF5;" d="M672.844,127.234c0.781-0.781,0.781-2.047,0-2.828l-0.464-0.464
							c-0.781-0.781-2.047-0.781-2.828,0c-0.781,0.781-0.781,2.047,0,2.829l0.464,0.464
							C670.797,128.016,672.063,128.016,672.844,127.234z"/>
					</g>
					<g>
						<path style="fill:#7A9DF5;" d="M610.383,64.773c0.78-0.781,0.78-2.047,0-2.829l-0.465-0.464c-0.78-0.781-2.047-0.781-2.828,0
							c-0.781,0.781-0.781,2.047,0,2.829l0.464,0.464C608.335,65.554,609.602,65.554,610.383,64.773z"/>
					</g>
				</g>
			</g>
		</g>
		<g>
			<rect x="359.895" y="91.163" style="fill:#7A9DF5;" width="63.002" height="60.985"/>
			<g>
				<rect x="366.503" y="128.833" style="fill:#C0D6F9;" width="6.602" height="16.706"/>
				<rect x="377.299" y="124.172" style="fill:#C0D6F9;" width="6.603" height="21.366"/>
				<rect x="388.095" y="120.978" style="fill:#C0D6F9;" width="6.602" height="24.56"/>
				<rect x="398.89" y="108.336" style="fill:#C0D6F9;" width="6.602" height="37.203"/>
				<rect x="409.686" y="97.771" style="fill:#C0D6F9;" width="6.602" height="47.768"/>
			</g>
		</g>
		<g>
			<g>
				<path style="fill:#A2BFF9;" d="M686.462,170.37c-3.975,0-7.208-3.233-7.208-7.208c0-3.974,3.233-7.207,7.208-7.207
					c3.975,0,7.208,3.233,7.208,7.207C693.67,167.137,690.437,170.37,686.462,170.37z M686.462,158.955
					c-2.32,0-4.208,1.888-4.208,4.207c0,2.32,1.888,4.208,4.208,4.208s4.208-1.888,4.208-4.208
					C690.67,160.842,688.782,158.955,686.462,158.955z"/>
			</g>
			<g>
				<path style="fill:#A2BFF9;" d="M388.095,194.001c-3.975,0-7.208-3.233-7.208-7.208c0-3.974,3.233-7.208,7.208-7.208
					s7.208,3.233,7.208,7.208C395.303,190.768,392.069,194.001,388.095,194.001z M388.095,182.586c-2.32,0-4.208,1.888-4.208,4.208
					c0,2.32,1.888,4.208,4.208,4.208c2.32,0,4.208-1.888,4.208-4.208C392.303,184.474,390.415,182.586,388.095,182.586z"/>
			</g>
			<g>
				<path style="fill:#C0D6F9;" d="M445.903,139.775c-3.975,0-7.208-3.233-7.208-7.208c0-3.974,3.233-7.207,7.208-7.207
					c3.975,0,7.208,3.233,7.208,7.207C453.111,136.542,449.878,139.775,445.903,139.775z M445.903,128.359
					c-2.32,0-4.208,1.888-4.208,4.207c0,2.32,1.888,4.208,4.208,4.208c2.32,0,4.208-1.888,4.208-4.208
					C450.111,130.247,448.224,128.359,445.903,128.359z"/>
			</g>
			<g>
				<path style="fill:#7A9DF5;" d="M511.761,214.508c-7.276,0-13.196-5.919-13.196-13.196c0-7.276,5.92-13.195,13.196-13.195
					c7.276,0,13.196,5.919,13.196,13.195C524.957,208.589,519.037,214.508,511.761,214.508z M511.761,191.117
					c-5.622,0-10.196,4.574-10.196,10.195c0,5.622,4.574,10.196,10.196,10.196c5.622,0,10.196-4.574,10.196-10.196
					C521.957,195.691,517.383,191.117,511.761,191.117z"/>
			</g>
			<g>
				<path style="fill:#A2BFF9;" d="M451.903,59.182c-4.958,0-8.991-4.033-8.991-8.991c0-4.958,4.033-8.991,8.991-8.991
					c4.958,0,8.992,4.033,8.992,8.991C460.896,55.149,456.861,59.182,451.903,59.182z M451.903,44.2
					c-3.304,0-5.991,2.688-5.991,5.991c0,3.304,2.688,5.991,5.991,5.991c3.304,0,5.992-2.688,5.992-5.991
					C457.896,46.888,455.207,44.2,451.903,44.2z"/>
			</g>
		</g>
	</g>
	<g>
		<path style="fill:#FFE8C7;" d="M114.092,452.757c8.188,0.113,16.39,0.01,24.51-0.869c3.281-0.356,7.222-0.932,10.533-2.204
			c7.998-3.077,0.63-5.88-4.355-6.312c-10.167-0.881-20.435-0.983-30.688-0.87c-10.251-0.113-20.521-0.011-30.688,0.87
			c-7.272,0.63-10.487,4.424-2.966,6.796c2.987,0.942,6.312,1.413,9.143,1.72C97.701,452.767,105.903,452.871,114.092,452.757z"/>
		<g>
			<path style="fill:#F78C17;" d="M163.002,421.131c-2.266-5.793-12.479-7.295-19.828-7.982c-9.41-0.879-18.915-0.982-28.404-0.869
				c-9.488-0.113-18.992-0.01-28.402,0.869c-7.349,0.688-17.563,2.189-19.829,7.982c-1.318,3.372,0.877,6.746,2.553,9.839
				c3.294,6.084,9.031,11.029,17.565,13.854c4.623,1.528,9.704,2.257,14.779,2.551c4.377,0.252,8.874,0.285,13.334,0.235
				c4.462,0.05,8.957,0.017,13.335-0.235c5.075-0.294,10.157-1.022,14.779-2.551c8.534-2.824,14.271-7.77,17.565-13.854
				C162.125,427.878,164.321,424.503,163.002,421.131z"/>
			<path style="fill:#2E3D42;" d="M114.77,412.28c-9.488-0.113-18.992-0.01-28.402,0.869c-3.802,0.356-8.369,0.932-12.206,2.204
				c-9.268,3.077-0.73,5.88,5.047,6.312c11.781,0.881,23.681,0.983,35.561,0.87c11.88,0.113,23.78,0.011,35.562-0.87
				c8.428-0.63,12.153-4.424,3.438-6.796c-3.461-0.942-7.314-1.413-10.595-1.72C133.764,412.27,124.259,412.167,114.77,412.28z"/>
			<path style="fill:#774411;" d="M83.698,365.425c5.184,2.796,9.54,7.208,13.549,11.446c5.411,5.723,10.22,12.054,14.202,18.851
				c-0.042,0.559-0.09,1.118-0.129,1.677c-0.586,8.363-0.825,16.761-0.732,25.16c0.678-0.003,1.355-0.007,2.034-0.012
				c-0.08-7.282,0.081-14.566,0.489-21.831c0.099-1.751,0.214-3.506,0.342-5.262c0-0.032,0.011-0.061,0.007-0.095
				c0.656-8.982,1.714-18.01,3.299-26.945c10.014-8.024,21.326-13.462,34.044-15.556c1.27-0.209,0.73-2.136-0.531-1.928
				c-12.255,2.017-23.18,7.126-32.971,14.545c2.65-13.864,6.615-27.46,12.433-40.231c0.531-1.164-1.193-2.182-1.727-1.01
				c-6.254,13.729-10.368,28.33-13.045,43.2c-0.049,0.112-0.069,0.229-0.063,0.342c-1.451,8.129-2.479,16.335-3.18,24.525
				c-3.775-6.031-8.206-11.64-13.057-16.845c-4.075-4.371-8.644-8.895-13.953-11.759C83.573,363.086,82.563,364.813,83.698,365.425z
				"/>
			<path style="fill:#B2A12B;" d="M86.927,348.736c-0.856,0.185-1.751,0.384-2.66,0.603c-2.293,0.551-2.566,0.105-0.575-1.384
				c0.485-0.363,0.988-0.728,1.498-1.092c-0.342-0.356-0.683-0.717-1.027-1.064c-10.129-10.19-23.823-17.336-38.373-17.217
				c-1.541,0.012-1.891,0.57-1.748,2.125c1.253,13.621,6.262,26.556,16.406,36.047c0.516,0.482,1.047,0.94,1.58,1.397
				c1.359-0.965,2.72-1.937,4.028-2.98c1.452-1.158,2.642-1.289,1.414,0.839c-0.854,1.482-1.691,2.972-2.485,4.478
				c4.17,3.034,8.761,5.334,13.594,6.936c0.074-0.627,0.145-1.271,0.209-1.926c0.232-2.347,0.742-2.459,1.496-0.09
				c0.287,0.902,0.57,1.839,0.83,2.791c5.976,1.652,12.269,2.268,18.57,1.865c0.989-0.063,1.055-0.138,1.053-1.077
				C100.704,367.748,94.37,357.039,86.927,348.736z"/>
			<path style="fill:#B2A12B;" d="M203.218,341.426c-11.608-6.715-26.593-7.694-39.558-5.762c-1.359,0.202-2.729,0.463-4.099,0.765
				c0.387,0.609,0.764,1.219,1.122,1.817c1.276,2.134,0.855,2.442-1.058,1.063c-1.059-0.765-2.105-1.484-3.073-2.143
				c-10.353,2.864-20.176,8.773-24.319,18.939c-0.629,1.546-0.415,1.866,0.556,2.41c5.4,3.02,11.422,4.705,17.606,5.415
				c0.811-1.336,1.784-2.917,2.737-4.595c1.165-2.05,1.677-1.944,1.403,0.526c-0.158,1.418-0.354,2.903-0.628,4.371
				c6.109,0.343,12.291-0.193,18.12-1.31c0.504-0.097,1.015-0.208,1.524-0.316c-0.09-0.786-0.188-1.6-0.301-2.429
				c-0.318-2.337,0.152-2.564,1.435-0.434c0.444,0.739,0.894,1.507,1.329,2.292c10.881-2.724,22.229-8.281,27.991-18.055
				C204.892,342.479,204.866,342.38,203.218,341.426z"/>
			<path style="fill:#B2A12B;" d="M144.76,319.411c-1.708-1.626-1.482-2.098,0.849-1.235c0.84,0.311,1.703,0.642,2.565,0.998
				c0.476-0.927,0.936-1.857,1.361-2.788c3.23-7.085,5.156-14.748,5.754-22.513c-0.621-0.017-1.257-0.028-1.903-0.033
				c-2.358-0.019-2.516-0.518-0.225-1.481c0.733-0.309,1.492-0.616,2.263-0.912c0.288-6.969-0.484-13.979-2.351-20.69
				c-0.469-1.689-0.608-1.998-2.228-0.918c-9.959,6.627-18.364,15.689-24.157,26.15c-0.72,1.3-1.37,2.623-1.984,3.958
				c0.902,0.632,1.779,1.287,2.613,1.933c1.965,1.522,1.685,1.963-0.599,1.374c-1.073-0.277-2.124-0.526-3.117-0.755
				c-4.848,11.985-5.605,25.132-2.417,37.794c0.509,2.018,0.971,1.814,2.71,1.332c10.177-2.821,17.85-11.019,23.013-20.11
				C146.23,320.835,145.51,320.125,144.76,319.411z"/>
		</g>
	</g>
</g>
</svg>
