<?xml version="1.0" encoding="utf-8"?>
<!-- Generator: Adobe Illustrator 27.5.0, SVG Export Plug-In . SVG Version: 6.00 Build 0)  -->
<svg version="1.1" id="Layer_1" xmlns="http://www.w3.org/2000/svg" xmlns:xlink="http://www.w3.org/1999/xlink" x="0px" y="0px"
	 viewBox="0 0 707.525 662.246" style="enable-background:new 0 0 707.525 662.246;" xml:space="preserve">
<g>
	<rect x="0" style="fill:#2B3363;" width="707.525" height="662.246"/>
	
		<ellipse transform="matrix(0.0054 -1 1 0.0054 -79.3304 990.8391)" style="fill:#21274D;" cx="458.448" cy="535.3" rx="77.126" ry="133.591"/>
</g>
<g>
	<g>
		<polygon style="fill:#B5B8C9;" points="227.105,389.588 88.295,469.728 117.018,485.227 166.865,485.227 255.824,405.082 		"/>
		<g>
			<polygon style="fill:#6A76BE;" points="373.49,365.932 166.865,485.227 166.865,172.697 373.49,53.402 			"/>
			<g>
				<path style="fill:#E6E6E6;" d="M207.893,239.954l21.269-12.28v8.537l-12.277,7.088v6.39l10.861-6.271v8.694l-10.861,6.271v7.226
					l12.277-7.088v8.432l-21.269,12.28V239.954z"/>
				<path style="fill:#E6E6E6;" d="M267.498,205.542l-11.411,25.388l12.552,13.233l-10.953,6.323l-7.075-7.437l-7.121,15.632
					l-10.952,6.325l12.55-27.726l-11.411-12.213l10.955-6.325l5.978,6.344l5.933-13.22L267.498,205.542z"/>
				<path style="fill:#E6E6E6;" d="M272.514,202.644l14.423-8.327c6.938-4.005,12.598-0.777,12.598,7.184
					c0,7.908-5.613,17.642-12.415,21.568l-5.613,3.243v10.421l-8.992,5.191V202.644z M281.506,217.406l5.568-3.214
					c2.738-1.581,4.928-5.308,4.928-8.447c0-3.143-2.19-4.393-4.928-2.812l-5.568,3.214V217.406z"/>
				<path style="fill:#E6E6E6;" d="M320.755,174.792c9.448-5.454,17.115-1.03,17.115,9.812s-7.667,24.014-17.115,29.467
					c-9.448,5.455-17.07,1.11-17.07-9.73C303.685,193.499,311.308,180.247,320.755,174.792z M320.755,185.06
					c-4.473,2.58-8.123,8.878-8.123,14.062c0,5.134,3.65,7.27,8.123,4.686c4.519-2.607,8.17-8.959,8.17-14.092
					C328.925,184.531,325.275,182.449,320.755,185.06z"/>
			</g>
			<polygon style="fill:#9F856B;" points="134.901,466.773 166.865,485.227 166.865,172.697 134.901,154.242 			"/>
			<polygon style="fill:#AF9D8F;" points="138.661,464.629 138.661,160.729 163.104,174.841 163.104,478.741 			"/>
			<g>
				<polygon style="fill:#FDEDD2;" points="341.526,34.948 134.901,154.242 166.865,172.697 373.49,53.402 				"/>
				<polygon style="fill:#CBAA88;" points="365.997,53.392 345.285,65.343 341.529,67.515 297.325,93.036 274.734,106.074 
					228.652,132.681 206.073,145.718 166.841,168.363 142.394,154.251 204.217,118.568 272.878,78.924 341.529,39.29 341.55,39.28 
					345.285,41.429 345.285,41.44 				"/>
				<polygon style="fill:#9F856B;" points="365.997,53.392 345.285,65.343 341.529,67.515 341.529,39.29 341.55,39.28 
					345.285,41.429 				"/>
				<polygon style="fill:#AF9D8F;" points="365.997,53.392 345.285,65.343 345.285,41.429 				"/>
				<polygon style="fill:#F6E0BB;" points="235.508,128.723 211.065,114.611 204.214,118.566 228.657,132.678 				"/>
				<polygon style="fill:#F6E0BB;" points="304.176,89.078 279.733,74.966 272.882,78.921 297.325,93.033 				"/>
			</g>
			<polygon style="fill:#9F856B;" points="228.652,132.681 206.073,145.718 204.217,144.643 204.217,118.568 			"/>
			<polygon style="fill:#9F856B;" points="297.325,93.036 274.734,106.074 272.878,104.999 272.878,78.924 			"/>
			<g>
				
					<radialGradient id="SVGID_1_" cx="166.1751" cy="1356.2787" r="37.3351" fx="166.0966" fy="1330.0305" gradientTransform="matrix(1.0806 -0.6239 0 0.9938 140.3159 -1102.1707)" gradientUnits="userSpaceOnUse">
					<stop  offset="0" style="stop-color:#7979B0"/>
					<stop  offset="0.3519" style="stop-color:#474767"/>
					<stop  offset="0.6547" style="stop-color:#21212F"/>
					<stop  offset="0.8789" style="stop-color:#09090D"/>
					<stop  offset="1" style="stop-color:#000000"/>
				</radialGradient>
				<path style="fill:url(#SVGID_1_);" d="M360.23,118.729c0,20.491-18.063,47.532-40.345,60.396
					c-22.282,12.865-40.345,6.682-40.345-13.809c0-20.491,18.063-47.532,40.345-60.396S360.23,98.238,360.23,118.729z"/>
				<g>
					<g>
						<polygon style="fill:#8A8898;" points="335.331,113.65 323.955,107.082 323.955,104.471 335.331,111.039 						"/>
						<path style="fill:#C6C5CB;" d="M346.179,104.776l-11.376-6.568l0.849-1.12c1.204-1.589,3.403-2.033,5.129-1.036l0.823,0.475
							c2.343,1.353,3.933,3.708,4.311,6.386L346.179,104.776z"/>
					</g>
					<g>
						<polygon style="fill:#656273;" points="346.179,107.387 334.803,100.82 334.803,98.208 346.179,104.776 						"/>
						<g>
							<polygon style="fill:#D2D0D9;" points="329.215,100.898 328.009,101.598 313.461,93.199 314.668,92.499 							"/>
							<polygon style="fill:#817C91;" points="328.009,101.598 328.009,103.243 313.461,94.843 313.461,93.199 							"/>
						</g>
						<polygon style="fill:#C6C5CB;" points="346.179,104.776 335.331,111.039 325.7,102.484 336.718,96.118 341.475,99.305 						
							"/>
						<path style="fill:#A2A0AE;" d="M335.331,111.039l-11.376-6.568l0.849-1.12c1.204-1.589,3.403-2.033,5.129-1.036l0.823,0.475
							c2.343,1.352,3.933,3.708,4.312,6.386L335.331,111.039z"/>
					</g>
					<polygon style="fill:#ADABB7;" points="346.179,104.776 335.331,111.039 335.331,113.65 346.179,107.387 					"/>
				</g>
				<path style="fill:#E8E6EC;" d="M342.138,97.268l-9.894,6.033c0,0,2.18,1.628,2.687,3.336c1.895-1.121,9.796-6.113,9.796-6.113
					S344.321,98.842,342.138,97.268z"/>
			</g>
			<g>
				
					<radialGradient id="SVGID_00000073000458160067489980000006474551000477724588_" cx="74.1751" cy="1356.2634" r="37.3351" fx="74.0966" fy="1330.0153" gradientTransform="matrix(1.0806 -0.6239 0 0.9938 140.3159 -1102.1707)" gradientUnits="userSpaceOnUse">
					<stop  offset="0" style="stop-color:#7979B0"/>
					<stop  offset="0.3519" style="stop-color:#474767"/>
					<stop  offset="0.6547" style="stop-color:#21212F"/>
					<stop  offset="0.8789" style="stop-color:#09090D"/>
					<stop  offset="1" style="stop-color:#000000"/>
				</radialGradient>
				<path style="fill:url(#SVGID_00000073000458160067489980000006474551000477724588_);" d="M260.815,176.113
					c0,20.491-18.063,47.531-40.345,60.396c-22.282,12.865-40.345,6.682-40.345-13.809c0-20.491,18.063-47.531,40.345-60.396
					C242.752,149.439,260.815,155.621,260.815,176.113z"/>
				<g>
					<g>
						<polygon style="fill:#8A8898;" points="235.916,171.034 224.54,164.466 224.54,161.854 235.916,168.422 						"/>
						<path style="fill:#C6C5CB;" d="M246.763,162.16l-11.376-6.568l0.849-1.12c1.204-1.589,3.403-2.033,5.129-1.036l0.823,0.475
							c2.343,1.352,3.933,3.708,4.311,6.386L246.763,162.16z"/>
					</g>
					<g>
						<polygon style="fill:#656273;" points="246.763,164.771 235.387,158.203 235.387,155.592 246.763,162.16 						"/>
						<g>
							<polygon style="fill:#D2D0D9;" points="229.8,158.282 228.594,158.982 214.046,150.582 215.252,149.883 							"/>
							<polygon style="fill:#817C91;" points="228.594,158.982 228.594,160.626 214.046,152.227 214.046,150.582 							"/>
						</g>
						<polygon style="fill:#C6C5CB;" points="246.763,162.16 235.916,168.422 226.285,159.867 237.303,153.502 242.06,156.689 
													"/>
						<path style="fill:#A2A0AE;" d="M235.916,168.422l-11.376-6.568l0.849-1.12c1.204-1.589,3.403-2.033,5.129-1.036l0.823,0.475
							c2.343,1.352,3.933,3.708,4.312,6.386L235.916,168.422z"/>
					</g>
					<polygon style="fill:#ADABB7;" points="246.763,162.16 235.916,168.422 235.916,171.034 246.763,164.771 					"/>
				</g>
				<path style="fill:#E8E6EC;" d="M242.723,154.652l-9.894,6.033c0,0,2.18,1.628,2.687,3.336c1.895-1.121,9.796-6.113,9.796-6.113
					S244.906,156.225,242.723,154.652z"/>
			</g>
		</g>
	</g>
	<g>
		
			<linearGradient id="SVGID_00000107551312429387973490000010214588792728489395_" gradientUnits="userSpaceOnUse" x1="248.9963" y1="613.2011" x2="309.3098" y2="613.2011">
			<stop  offset="0" style="stop-color:#CACDDD"/>
			<stop  offset="0.1621" style="stop-color:#CACDDD"/>
			<stop  offset="0.1887" style="stop-color:#CACDDD"/>
			<stop  offset="0.2394" style="stop-color:#DCDDE3"/>
			<stop  offset="0.2837" style="stop-color:#E6E6E6"/>
			<stop  offset="0.3375" style="stop-color:#E6E6E6"/>
		</linearGradient>
		<path style="fill:url(#SVGID_00000107551312429387973490000010214588792728489395_);" d="M309.31,601.958l-1.192,0.355
			c-0.355-0.337-0.782-0.66-1.292-0.955l-7.159-4.134c-3.001-1.733-7.584-1.923-10.184-0.422l-36.192,20.896l-4.294,1.277v2.747
			l0.006-0.002c0.002,1.157,0.838,2.376,2.479,3.323l7.159,4.134c3.002,1.733,7.584,1.923,10.184,0.422l38.732-22.362
			c1.179-0.681,1.75-1.598,1.747-2.559l0.006-0.002V601.958z"/>
		<path style="fill:#E3E3E8;" d="M307.556,604.501l-38.732,22.362c-2.599,1.501-7.182,1.311-10.184-0.422l-7.16-4.133
			c-3.001-1.733-3.33-4.379-0.731-5.88l38.732-22.362c2.599-1.501,7.182-1.311,10.184,0.422l7.159,4.133
			C309.827,600.354,310.156,603,307.556,604.501z"/>
		<path style="fill:#F0F1F5;" d="M264.404,627.044c-2.017,0-4.047-0.504-5.568-1.382l-7.159-4.133
			c-1.455-0.84-2.289-1.929-2.289-2.989c0-0.847,0.553-1.633,1.558-2.213l38.732-22.362c1.072-0.619,2.572-0.96,4.224-0.96
			c2.017,0,4.047,0.504,5.569,1.383l7.159,4.134c1.455,0.84,2.289,1.929,2.289,2.989c0,0.847-0.554,1.633-1.558,2.213
			l-38.732,22.362C267.556,626.703,266.056,627.044,264.404,627.044z"/>
		
			<linearGradient id="SVGID_00000062172072110830074600000008982326421029312926_" gradientUnits="userSpaceOnUse" x1="295.8816" y1="530.3527" x2="298.8456" y2="530.3527">
			<stop  offset="0" style="stop-color:#CFD3E4"/>
			<stop  offset="0.0073" style="stop-color:#CDD1E3"/>
			<stop  offset="0.2179" style="stop-color:#A0A5BE"/>
			<stop  offset="0.324" style="stop-color:#8F94B0"/>
			<stop  offset="0.5641" style="stop-color:#CFD3E4"/>
			<stop  offset="0.9653" style="stop-color:#CFD3E4"/>
			<stop  offset="1" style="stop-color:#CFD3E4"/>
		</linearGradient>
		<path style="fill:url(#SVGID_00000062172072110830074600000008982326421029312926_);" d="M295.882,459.69v140.454h0.002
			c-0.005,0.224,0.139,0.449,0.435,0.62c0.58,0.335,1.519,0.337,2.095,0.004c0.287-0.166,0.43-0.383,0.43-0.601h0.001V459.712
			L295.882,459.69z"/>
		<path style="fill:#B3B3B3;" d="M298.415,460.296c-0.577,0.333-1.515,0.331-2.096-0.004c-0.581-0.335-0.583-0.877-0.007-1.21
			c0.577-0.333,1.515-0.331,2.096,0.004C298.989,459.422,298.991,459.963,298.415,460.296z"/>
		<polygon style="fill:#E9EAEB;" points="313.141,577.011 297.447,570.568 296.368,561.403 309.372,553.897 293.662,527.459 
			292.45,528.163 292.153,525.661 293.936,526.396 310.451,554.178 		"/>
		<polygon style="opacity:0.9;fill:#E1E7F1;" points="293.939,526.392 257.352,547.516 273.861,575.3 310.449,554.176 		"/>
		<polygon style="opacity:0.9;fill:#93A1BF;" points="309.372,553.897 296.368,561.403 292.45,528.163 293.662,527.459 		"/>
		<polygon style="opacity:0.9;fill:#B9C1D1;" points="296.368,561.403 274.142,574.241 258.425,547.795 292.45,528.163 		"/>
		<g>
			<polygon style="fill:#7760FF;" points="286.405,588.649 273.474,596.115 270.771,556.267 283.703,548.802 			"/>
			<polygon style="fill:#DCE7E5;" points="283.239,585.989 275.767,590.302 274.513,571.805 281.984,567.491 			"/>
			<polygon style="fill:#E06F77;" points="281.654,562.623 272.746,567.766 272.213,559.904 281.121,554.761 			"/>
		</g>
		<g>
			<polygon style="fill:#FB7188;" points="298.563,581.445 281.985,591.017 279.745,559.162 296.323,549.59 			"/>
			<polygon style="fill:#FFD86F;" points="289.114,582.927 283.433,586.206 281.755,562.337 287.435,559.057 			"/>
			<polygon style="fill:#FFD86F;" points="290.85,569.505 295.738,566.683 294.899,554.748 290.011,557.57 			"/>
			<polygon style="fill:#FFD86F;" points="291.36,576.753 296.248,573.931 296.007,570.502 291.119,573.324 			"/>
		</g>
		<polygon style="fill:#C5CDDE;" points="292.152,525.658 255.564,546.782 257.352,547.516 293.939,526.392 		"/>
		<polygon style="opacity:0.9;fill:#D9DFED;" points="310.449,554.176 273.861,575.3 276.555,598.134 313.143,577.01 		"/>
		<g style="opacity:0.9;">
			<polygon style="fill:#A0ADCE;" points="273.861,575.3 276.555,598.134 260.863,591.69 255.564,546.782 257.352,547.516 			"/>
		</g>
		<g>
			<polygon style="fill:#E9EAEB;" points="307.612,482.826 291.918,476.383 291.238,470.588 304.234,463.082 288.525,436.644 
				287.313,437.348 287.016,434.846 288.806,435.581 305.313,463.363 			"/>
			<polygon style="fill:#E9EAEB;" points="310.576,531.603 294.882,525.16 293.803,515.996 306.807,508.489 291.098,482.052 
				289.885,482.755 289.588,480.253 291.371,480.988 307.886,508.771 			"/>
			<polygon style="opacity:0.9;fill:#E1E7F1;" points="291.372,480.985 254.784,502.109 271.294,529.893 307.882,508.77 			"/>
			<polygon style="opacity:0.9;fill:#93A1BF;" points="306.807,508.489 293.803,515.996 289.885,482.755 291.098,482.052 			"/>
			<polygon style="opacity:0.9;fill:#B9C1D1;" points="293.803,515.996 271.57,528.833 255.86,502.388 289.885,482.755 			"/>
			<g>
				<polygon style="fill:#77D370;" points="295.657,534.819 282.279,542.542 279.483,501.32 292.861,493.597 				"/>
				<polygon style="fill:#C1EEBE;" points="290.813,508.949 280.408,514.956 280.248,512.588 290.652,506.581 				"/>
				<polygon style="fill:#C1EEBE;" points="292.158,528.776 281.753,534.783 281.639,533.1 292.044,527.094 				"/>
				<polygon style="fill:#C1EEBE;" points="292.381,532.067 281.976,538.074 281.862,536.391 292.267,530.385 				"/>
				<polygon style="fill:#DCE7E5;" points="291.83,523.946 284.101,528.409 283.354,517.393 291.083,512.931 				"/>
				<polygon style="fill:#FFD86F;" points="290.481,504.06 281.266,509.38 280.974,505.082 290.19,499.762 				"/>
			</g>
			<g>
				<polygon style="fill:#4584FF;" points="285.327,540.879 268.748,550.451 266.508,518.595 283.087,509.024 				"/>
				<polygon style="fill:#DCE7E5;" points="283.329,537.878 270.185,545.466 268.506,521.597 281.65,514.008 				"/>
			</g>
			<polygon style="fill:#C5CDDE;" points="289.585,480.251 252.997,501.375 254.784,502.109 291.372,480.985 			"/>
			<polygon style="opacity:0.9;fill:#D9DFED;" points="307.882,508.77 271.294,529.893 273.988,552.727 310.576,531.603 			"/>
			<polygon style="fill:#A0ADCE;" points="271.294,529.893 273.988,552.727 258.295,546.283 252.997,501.375 254.784,502.109 			"/>
		</g>
		<polygon style="opacity:0.9;fill:#E1E7F1;" points="288.805,435.578 252.217,456.702 268.727,484.487 305.315,463.363 		"/>
		<polygon style="opacity:0.9;fill:#93A1BF;" points="304.234,463.082 291.238,470.588 287.313,437.348 288.525,436.644 		"/>
		<polygon style="opacity:0.9;fill:#B9C1D1;" points="291.238,470.588 269.005,483.426 253.296,456.98 287.313,437.348 		"/>
		<g>
			<polygon style="fill:#7760FF;" points="279.775,489.118 266.843,496.583 264.141,456.736 277.072,449.271 			"/>
			<polygon style="fill:#DCE7E5;" points="276.608,486.458 269.137,490.771 267.882,472.274 275.354,467.96 			"/>
			<polygon style="fill:#E06F77;" points="275.023,463.092 266.115,468.235 265.582,460.373 274.49,455.23 			"/>
		</g>
		<g>
			<polygon style="fill:#FB7188;" points="291.933,481.914 275.354,491.486 273.114,459.631 289.693,450.059 			"/>
			<polygon style="fill:#FFD86F;" points="282.483,483.396 276.803,486.676 275.124,462.806 280.805,459.526 			"/>
			<polygon style="fill:#FFD86F;" points="284.22,469.974 289.108,467.152 288.268,455.217 283.381,458.039 			"/>
			<polygon style="fill:#FFD86F;" points="284.729,477.222 289.617,474.4 289.376,470.971 284.488,473.793 			"/>
		</g>
		<polygon style="opacity:0.9;fill:#D9DFED;" points="305.315,463.363 268.727,484.487 271.023,503.948 307.611,482.823 		"/>
		<polygon style="opacity:0.9;fill:#A0ADCE;" points="268.727,484.487 271.023,503.948 255.33,497.503 250.43,455.968 
			252.217,456.702 		"/>
		<polygon style="fill:#C5CDDE;" points="287.018,434.844 250.43,455.968 252.217,456.702 288.805,435.578 		"/>
		
			<linearGradient id="SVGID_00000146473536968614265380000003617583211806805695_" gradientUnits="userSpaceOnUse" x1="259.2937" y1="551.4803" x2="262.2577" y2="551.4803">
			<stop  offset="0" style="stop-color:#CFD3E4"/>
			<stop  offset="0.0073" style="stop-color:#CDD1E3"/>
			<stop  offset="0.2179" style="stop-color:#A0A5BE"/>
			<stop  offset="0.324" style="stop-color:#8F94B0"/>
			<stop  offset="0.5641" style="stop-color:#CFD3E4"/>
			<stop  offset="0.9653" style="stop-color:#CFD3E4"/>
			<stop  offset="1" style="stop-color:#CFD3E4"/>
		</linearGradient>
		<path style="fill:url(#SVGID_00000146473536968614265380000003617583211806805695_);" d="M259.294,480.821v140.48h0.004
			c0.009,0.212,0.152,0.424,0.434,0.586c0.58,0.335,1.519,0.337,2.095,0.004c0.283-0.163,0.424-0.376,0.429-0.591h0.002V480.821
			H259.294z"/>
		<path style="fill:#EAECF3;" d="M261.827,481.42c-0.577,0.333-1.515,0.331-2.096-0.004c-0.581-0.335-0.583-0.877-0.007-1.21
			c0.577-0.333,1.515-0.331,2.096,0.004C262.401,480.546,262.404,481.087,261.827,481.42z"/>
	</g>
	<g>
		<g>
			<g>
				
					<linearGradient id="SVGID_00000129202263688805710240000005601226112860659896_" gradientUnits="userSpaceOnUse" x1="557.9365" y1="444.9211" x2="633.5099" y2="444.9211">
					<stop  offset="0.324" style="stop-color:#8F94B0"/>
					<stop  offset="0.3628" style="stop-color:#CFD3E4"/>
					<stop  offset="0.9493" style="stop-color:#CFD3E4"/>
					<stop  offset="1" style="stop-color:#CFD3E4"/>
				</linearGradient>
				<path style="fill:url(#SVGID_00000129202263688805710240000005601226112860659896_);" d="M633.51,436.818l-0.686,0.204
					c-0.204-0.194-0.449-0.379-0.743-0.549l-21.724-12.543c-1.726-0.996-4.361-1.106-5.855-0.243l-44.096,25.459l-2.469,0.734v1.58
					l0.004-0.001c0.001,0.665,0.482,1.366,1.425,1.911l21.724,12.543c1.726,0.996,4.361,1.106,5.856,0.243l45.557-26.302
					c0.678-0.392,1.006-0.919,1.005-1.471l0.004-0.001V436.818z"/>
				<path style="fill:#BFC3D7;" d="M632.502,438.28l-45.557,26.302c-1.495,0.863-4.13,0.754-5.855-0.243l-21.724-12.543
					c-1.726-0.996-1.915-2.518-0.42-3.381l45.557-26.302c1.495-0.863,4.129-0.754,5.855,0.243l21.724,12.543
					C633.807,435.895,633.996,437.417,632.502,438.28z"/>
				<path style="fill:#EAECF3;" d="M584.404,464.686c-1.16,0-2.327-0.29-3.202-0.795l-21.724-12.543
					c-0.837-0.483-1.316-1.109-1.316-1.719c0-0.487,0.318-0.939,0.896-1.273l45.557-26.302c0.617-0.356,1.479-0.552,2.429-0.552
					c1.16,0,2.327,0.29,3.202,0.795l21.724,12.543c0.836,0.483,1.316,1.109,1.316,1.719c0,0.487-0.318,0.939-0.896,1.272
					l-45.557,26.302C586.216,464.49,585.353,464.686,584.404,464.686z"/>
			</g>
			<g>
				<polygon style="fill:#777E8A;" points="621.457,371.268 620.121,368.642 603.018,335.092 620.045,321.343 621.457,320.201 
					620.117,317.576 602.299,282.609 600.199,283.396 617.918,318.155 600.199,332.462 599.48,333.042 600.55,335.142 
					617.918,369.222 600.199,383.524 599.48,384.109 600.545,386.204 617.918,420.284 609.911,426.754 609.106,427.402 
					609.106,430.14 609.106,433.231 611.83,434.805 611.83,430.099 620.243,423.315 621.457,422.33 620.117,419.704 
					603.018,386.154 620.243,372.253 				"/>
				<polygon style="fill:#CFD3E4;" points="611.83,434.805 609.019,436.428 609.019,431.722 611.83,430.099 				"/>
				<polygon style="fill:#A4A4A4;" points="600.199,283.396 597.388,285.019 599.488,284.232 602.299,282.609 				"/>
				<polygon style="fill:#8F94B0;" points="618.646,372.891 617.31,370.265 600.207,336.715 617.234,322.966 618.646,321.824 
					617.306,319.198 599.488,284.232 597.388,285.019 615.107,319.778 597.388,334.085 596.669,334.665 597.739,336.765 
					615.107,370.845 597.388,385.147 596.669,385.732 597.734,387.827 615.107,421.907 607.1,428.377 606.295,429.025 
					606.295,431.763 606.295,434.854 609.019,436.428 609.019,431.722 617.432,424.938 618.646,423.953 617.306,421.327 
					600.207,387.777 617.432,373.875 				"/>
				<polygon style="fill:#F3F4F8;" points="602.299,282.609 599.488,284.232 618.646,321.824 621.457,320.201 				"/>
				<polygon style="fill:#F3F4F8;" points="603.018,335.092 600.207,336.715 618.646,372.891 621.457,371.268 				"/>
				<polygon style="fill:#F3F4F8;" points="603.018,386.154 600.207,387.777 618.646,423.953 621.457,422.33 				"/>
			</g>
			<polygon style="fill:#D9DFED;" points="600.207,336.715 572.94,352.458 591.378,388.634 618.646,372.891 			"/>
			<polygon style="fill:#D9DFED;" points="599.488,284.232 572.22,299.975 591.378,337.567 618.646,321.824 			"/>
			<polygon style="fill:#A4A4A4;" points="597.442,284.988 570.121,300.762 572.22,299.975 599.542,284.201 			"/>
			<polygon style="fill:#97A7CC;" points="600.207,336.715 572.94,352.458 591.378,337.567 618.646,321.824 			"/>
			<g>
				<g>
					<polygon style="fill:#777E8A;" points="591.378,388.634 590.043,386.008 572.94,352.458 589.967,338.709 591.378,337.567 
						590.038,334.941 572.22,299.975 570.121,300.762 587.84,335.521 570.121,349.828 569.401,350.408 570.471,352.507 
						587.84,386.588 570.121,400.89 569.401,401.474 570.467,403.569 587.84,437.65 579.832,444.12 579.028,444.767 
						579.028,447.505 579.028,450.597 581.752,452.17 581.752,447.465 590.164,440.68 591.378,439.696 590.038,437.07 
						572.94,403.52 590.164,389.618 					"/>
					<polygon style="fill:#A4A4A4;" points="570.121,300.762 567.31,302.385 569.409,301.598 572.22,299.975 					"/>
				</g>
				<g>
					<polygon style="fill:#8F94B0;" points="588.567,390.257 587.232,387.631 570.129,354.081 587.156,340.332 588.567,339.19 
						587.227,336.564 569.409,301.598 567.31,302.385 585.029,337.144 567.31,351.451 566.59,352.031 567.66,354.13 
						585.029,388.211 567.31,402.513 566.59,403.097 567.656,405.193 585.029,439.273 577.021,445.743 576.216,446.39 
						576.216,449.128 576.216,452.22 578.941,453.793 578.941,449.088 587.353,442.303 588.567,441.319 587.227,438.693 
						570.129,405.143 587.353,391.241 					"/>
				</g>
				<polygon style="fill:#F3F4F8;" points="572.22,299.975 569.409,301.598 588.567,339.19 591.378,337.567 				"/>
				<polygon style="fill:#F3F4F8;" points="572.94,352.458 570.129,354.081 588.567,390.257 591.378,388.634 				"/>
				<polygon style="fill:#F3F4F8;" points="572.94,403.52 570.129,405.143 588.567,441.319 591.378,439.696 				"/>
				<polygon style="fill:#CFD3E4;" points="581.752,452.17 578.941,453.793 578.941,449.088 581.752,447.465 				"/>
			</g>
		</g>
		<g>
			<polygon style="fill:#7760FF;" points="605.398,380.115 592.467,387.58 575.843,355.034 588.774,347.568 			"/>
			<polygon style="fill:#DCE7E5;" points="600.723,378.246 593.251,382.56 585.534,367.451 593.006,363.138 			"/>
			<polygon style="fill:#E06F77;" points="590.975,359.162 582.067,364.305 578.787,357.883 587.695,352.74 			"/>
		</g>
		<g>
			<polygon style="fill:#FB7188;" points="617.494,372.944 600.916,382.515 587.531,356.505 604.11,346.933 			"/>
			<polygon style="fill:#FFD86F;" points="606.709,375.126 601.028,378.405 590.999,358.915 596.679,355.636 			"/>
			<polygon style="fill:#FFD86F;" points="604.27,363.894 609.158,361.072 604.143,351.327 599.255,354.148 			"/>
			<polygon style="fill:#FFD86F;" points="607.315,369.811 612.203,366.99 610.762,364.19 605.875,367.012 			"/>
		</g>
		<g>
			<polygon style="fill:#77D370;" points="618.55,321.1 605.173,328.824 587.975,295.154 601.353,287.431 			"/>
			<polygon style="fill:#C1EEBE;" points="604.069,300.285 593.664,306.292 592.676,304.357 603.081,298.351 			"/>
			<polygon style="fill:#C1EEBE;" points="612.341,316.479 601.936,322.486 601.234,321.112 611.639,315.105 			"/>
			<polygon style="fill:#C1EEBE;" points="613.714,319.167 603.309,325.174 602.607,323.8 613.012,317.793 			"/>
			<polygon style="fill:#DCE7E5;" points="610.326,312.534 602.596,316.997 598.001,308 605.731,303.538 			"/>
			<polygon style="fill:#FFD86F;" points="602.029,296.291 592.813,301.612 591.021,298.102 600.236,292.781 			"/>
		</g>
		<g>
			<polygon style="fill:#4584FF;" points="608.253,327.143 591.674,336.715 578.29,310.705 594.868,301.133 			"/>
			<polygon style="fill:#DCE7E5;" points="604.858,324.875 591.714,332.464 581.685,312.973 594.828,305.385 			"/>
		</g>
		<g>
			<polygon style="fill:#A0ADCE;" points="614.115,308.037 620.454,320.476 618.646,321.824 612.016,308.824 			"/>
			<polygon style="opacity:0.51;fill:#EBEDF6;" points="614.115,308.037 586.848,323.78 593.187,336.219 620.454,320.476 			"/>
			<polygon style="fill:#A0ADCE;" points="586.848,323.78 593.187,336.219 591.378,337.567 584.748,324.566 			"/>
		</g>
		<g>
			<polygon style="fill:#A0ADCE;" points="614.115,359.104 620.454,371.543 618.646,372.891 612.016,359.891 			"/>
			<polygon style="opacity:0.51;fill:#EBEDF6;" points="614.115,359.104 586.848,374.846 593.187,387.285 620.454,371.543 			"/>
			<polygon style="fill:#A0ADCE;" points="586.848,374.846 593.187,387.285 591.378,388.634 584.748,375.633 			"/>
		</g>
	</g>
	<g>
		<g>
			<g>
				<g>
					
						<linearGradient id="SVGID_00000079461385919740764060000018199060179590142643_" gradientUnits="userSpaceOnUse" x1="477.5726" y1="351.4799" x2="537.6716" y2="351.4799">
						<stop  offset="0" style="stop-color:#CFD3E4"/>
						<stop  offset="0.0073" style="stop-color:#CDD1E3"/>
						<stop  offset="0.2179" style="stop-color:#A0A5BE"/>
						<stop  offset="0.324" style="stop-color:#8F94B0"/>
						<stop  offset="0.5641" style="stop-color:#CFD3E4"/>
						<stop  offset="0.9653" style="stop-color:#CFD3E4"/>
						<stop  offset="1" style="stop-color:#CFD3E4"/>
					</linearGradient>
					<path style="fill:url(#SVGID_00000079461385919740764060000018199060179590142643_);" d="M486.307,363.786
						c11.698,6.754,30.724,6.72,42.496-0.077c11.772-6.797,11.831-17.781,0.133-24.535c-11.698-6.754-30.725-6.72-42.496,0.077
						C474.669,346.047,474.609,357.032,486.307,363.786z"/>
					
						<ellipse transform="matrix(1 -0.0054 0.0054 1 -1.8839 2.7579)" style="fill:#EAECF3;" cx="507.622" cy="348.767" rx="30.05" ry="17.349"/>
				</g>
				<g>
					<path style="fill:#6A76BE;" d="M452.94,48.755c6.336,16.819,11.426,33.208,12.947,55.318c1.521,22.109,0,118.229,0,139.557
						c0,21.328,17.235,56.577,41.735,78.866c0-29.471-0.101-164.967-0.101-164.967c-0.759-16.049-3.897-42.499-22.605-69.958
						S452.94,48.755,452.94,48.755z"/>
					<g>
						<path style="fill:#57548D;" d="M507.156,303.001c-1.61-1.276-30.025-36.878-30.025-63.022V133.722
							c0-44.588-8.12-63.667-14.228-74.14l1.281-0.748c6.194,10.621,14.43,29.94,14.43,74.887v106.257
							c0,25.686,27.688,60.413,29.463,61.86L507.156,303.001z"/>
					</g>
				</g>
			</g>
			<path style="fill:#B1B5CC;" d="M510.337,192.878v155.892h-0.007c-0.015,0.289-0.163,0.586-0.46,0.846
				c-0.096,0.081-0.208,0.156-0.334,0.23c-0.23,0.134-0.497,0.237-0.779,0.312c-1.009,0.274-2.233,0.171-3.064-0.304
				c-0.045-0.022-0.089-0.052-0.126-0.081c-0.438-0.282-0.653-0.645-0.66-1.001v-0.015v-0.015V192.878
				c0-80.824-16.772-105.941-57.903-146.806c-0.401-0.4-0.668-0.912-0.757-1.461c-0.022-0.141-0.037-0.282-0.037-0.43v-0.03
				c0-1.076,0.623-2.003,1.521-2.44c0.363-0.178,0.771-0.282,1.209-0.282c0.03,0,0.067,0,0.096,0.007
				c0.66,0.022,1.306,0.297,1.78,0.771c21.348,21.215,35.598,37.764,45.004,58.942C505.864,123.744,510.337,152.036,510.337,192.878
				z"/>
			<g>
				<path style="fill:#CFD3E4;" d="M509.87,197.054v152.562c-0.096,0.081-0.208,0.156-0.334,0.23
					c-0.23,0.134-0.497,0.237-0.779,0.312V197.054c0-30.049-2.033-73.614-19.561-104.932
					c-10.289-18.381-28.803-38.053-41.466-50.411c0.363-0.178,0.771-0.282,1.209-0.282c0.03,0,0.067,0,0.096,0.007
					c12.692,12.432,30.925,31.904,41.132,50.137C507.629,122.773,509.87,164.335,509.87,197.054z"/>
			</g>
			<g>
				<path style="fill:#9196B2;" d="M505.567,182.998v166.774c-0.438-0.282-0.653-0.645-0.66-1.001v-0.015v-0.015V192.878
					c0-80.824-16.772-105.941-57.903-146.806c-0.401-0.4-0.668-0.912-0.757-1.461c9.361,8.315,21.044,20.295,32.631,36.362
					C505.567,118.018,505.567,165.225,505.567,182.998z"/>
			</g>
		</g>
		<g>
			<path style="fill:#E6E6E6;" d="M496.026,173.527v9.293l-4.771-3.382v-5.365l-3.571-2.531v4.746l-4.859-3.444v-4.746l-4.04-2.864
				v5.365l-4.713-3.341v-9.293L496.026,173.527z"/>
			<path style="fill:#E6E6E6;" d="M496.026,199.572l-10.509-12.434l-11.446-2.629v-4.786l6.44,1.473l-6.44-7.676v-4.786
				l11.446,13.598l10.509,2.462v4.786l-5.474-1.267l5.474,6.472V199.572z"/>
			<path style="fill:#E6E6E6;" d="M496.026,201.764v6.302c0,3.032-3.629,2.932-8.079-0.222c-4.42-3.132-8.05-8.159-8.05-11.13
				v-2.454l-5.826-4.129v-3.928L496.026,201.764z M484.873,197.789v2.432c0,1.197,1.376,3.129,3.132,4.375
				c1.756,1.245,3.161,1.283,3.161,0.086v-2.432L484.873,197.789z"/>
			<path style="fill:#E6E6E6;" d="M496.026,222.844c0,4.128-4.947,3.973-11.006-0.322c-6.059-4.295-10.948-11.111-10.948-15.239
				s4.889-3.994,10.948,0.301C491.079,211.879,496.026,218.715,496.026,222.844z M490.288,218.778c0-1.954-2.342-5.21-5.24-7.264
				c-2.869-2.033-5.24-2.118-5.24-0.164c0,1.975,2.371,5.25,5.24,7.284C487.947,220.688,490.288,220.751,490.288,218.778z"/>
			<path style="fill:#E6E6E6;" d="M498.816,239.846l-8.936-8.087v-2.26l8.936,7.153V239.846z M498.816,244.515l-8.936-8.075v-2.294
				l8.936,7.187V244.515z"/>
		</g>
	</g>
	<g>
		<g>
			<path style="fill:#B5B8C9;" d="M102.273,600.123l80.016-46.197c5.529-3.193,12.342-3.193,17.872,0l14.792,8.54
				c0.965,0.557,0.965,1.95,0,2.507l-80.096,46.243c-4.137,2.388-9.233,2.388-13.37,0L102.273,600.123z"/>
		</g>
		<g>
			<path style="fill:#9196B1;" d="M213.81,564.136c-1.922,1.054-3.736,0.84-4.907,0.201c-1.172-0.639-2.225-0.871-3.472-2.622
				c-1.246-1.752-2.584-4.774-6.198-6.817c-3.613-2.042-7.048-0.376-8.027-0.541c-2.44-0.413-3.7-1.487-3.582-2.372
				s1.064-1.768,2.788-1.945c1.947-0.2,3.889,1.507,5.824,1.413c1.935-0.093,4.267-2.212,7.889,0.121
				c3.621,2.333,4.706,6.328,7.42,8.178c2.714,1.85,2.714,1.85,2.714,1.85S216.428,562.7,213.81,564.136z"/>
			<g>
				
					<linearGradient id="SVGID_00000057121131030727716940000009982911725838300596_" gradientUnits="userSpaceOnUse" x1="197.8865" y1="433.4398" x2="203.5867" y2="433.4398">
					<stop  offset="0" style="stop-color:#CFD3E4"/>
					<stop  offset="0.0073" style="stop-color:#CDD1E3"/>
					<stop  offset="0.2179" style="stop-color:#A0A5BE"/>
					<stop  offset="0.324" style="stop-color:#8F94B0"/>
					<stop  offset="0.5641" style="stop-color:#CFD3E4"/>
					<stop  offset="0.9653" style="stop-color:#CFD3E4"/>
					<stop  offset="1" style="stop-color:#CFD3E4"/>
				</linearGradient>
				<path style="fill:url(#SVGID_00000057121131030727716940000009982911725838300596_);" d="M203.587,312.979h-5.7v239.287h0
					c0,0.419,0.276,0.837,0.828,1.156c1.109,0.641,2.914,0.637,4.031-0.007c0.572-0.33,0.85-0.765,0.839-1.197h0.002V312.979z"/>
				<path style="fill:#CFD3E4;" d="M198.715,314.146c1.109,0.641,2.914,0.637,4.031-0.007c1.117-0.645,1.122-1.686,0.013-2.327
					c-1.109-0.641-2.914-0.637-4.031,0.007C197.611,312.464,197.605,313.506,198.715,314.146z"/>
			</g>
			<g>
				<polygon style="fill:#9FA9BD;" points="121.768,586.121 119.414,584.762 119.523,361.393 121.877,362.752 				"/>
				<polygon style="fill:#D2DDEF;" points="121.877,362.752 119.523,361.393 197.968,316.103 200.321,317.462 				"/>
				<polygon style="fill:#F2F6FF;" points="121.768,586.121 200.321,540.768 200.321,317.462 121.877,362.752 				"/>
				<polygon style="fill:#B8BCD1;" points="121.768,586.121 200.321,540.768 200.321,528.097 121.877,573.387 				"/>
			</g>
			<g>
				<path style="fill:#9196B1;" d="M132.194,611.257c-1.922,1.054-3.736,0.84-4.907,0.201c-1.172-0.639-2.225-0.871-3.472-2.622
					c-1.246-1.752-2.585-4.775-6.198-6.817c-3.613-2.042-7.048-0.376-8.026-0.541c-2.44-0.413-3.7-1.487-3.582-2.371
					c0.118-0.885,1.064-1.768,2.788-1.945c1.947-0.199,3.889,1.507,5.824,1.414c1.935-0.094,4.267-2.212,7.889,0.121
					c3.621,2.333,4.706,6.328,7.42,8.178c2.714,1.85,2.714,1.85,2.714,1.85S134.812,609.821,132.194,611.257z"/>
				
					<linearGradient id="SVGID_00000145020019624054794920000017213515133618962588_" gradientUnits="userSpaceOnUse" x1="116.2709" y1="480.5606" x2="121.9712" y2="480.5606">
					<stop  offset="0" style="stop-color:#CFD3E4"/>
					<stop  offset="0.0073" style="stop-color:#CDD1E3"/>
					<stop  offset="0.2179" style="stop-color:#A0A5BE"/>
					<stop  offset="0.324" style="stop-color:#8F94B0"/>
					<stop  offset="0.5641" style="stop-color:#CFD3E4"/>
					<stop  offset="0.9653" style="stop-color:#CFD3E4"/>
					<stop  offset="1" style="stop-color:#CFD3E4"/>
				</linearGradient>
				<path style="fill:url(#SVGID_00000145020019624054794920000017213515133618962588_);" d="M121.971,360.1h-5.7v239.287h0.001
					c0,0.419,0.276,0.837,0.828,1.156c1.109,0.641,2.914,0.637,4.031-0.007c0.572-0.33,0.851-0.765,0.839-1.197h0.003V360.1z"/>
				<path style="fill:#CFD3E4;" d="M117.099,361.267c1.109,0.641,2.914,0.637,4.031-0.007c1.117-0.645,1.122-1.686,0.013-2.327
					c-1.11-0.641-2.914-0.637-4.031,0.007S115.99,360.626,117.099,361.267z"/>
			</g>
		</g>
		<g>
			<g>
				<g>
					<path style="fill:#6A76BE;" d="M140.052,400.93l-9.154,5.285v-17.693l9.154-5.285v3.837l-4.988,2.88v2.783l4.62-2.667v3.837
						l-4.62,2.667v3.339l4.988-2.88V400.93z"/>
					<path style="fill:#6A76BE;" d="M156.643,391.352l-4.82,2.783l-3.006-3.796l-2.974,7.248l-4.715,2.721l5.115-12.006
						l-4.809-5.864l4.62-2.667l2.784,3.864l2.679-7.017l4.757-2.747l-4.883,11.836L156.643,391.352z"/>
					<path style="fill:#6A76BE;" d="M169.562,371.827c0,1.976-0.508,3.797-1.524,5.46c-1.016,1.664-2.459,3.036-4.329,4.115
						l-1.171,0.676v5.869l-4.166,2.405v-17.693l5.336-3.081c1.948-1.125,3.41-1.48,4.388-1.068
						C169.074,368.921,169.562,370.028,169.562,371.827z M162.538,378.181l0.76-0.439c0.625-0.361,1.123-0.85,1.492-1.466
						c0.369-0.616,0.554-1.28,0.554-1.99c0-1.194-0.577-1.458-1.73-0.793l-1.076,0.622V378.181z"/>
					<path style="fill:#6A76BE;" d="M186.447,365.273c0,2.978-0.636,5.608-1.909,7.891s-3.136,4.134-5.589,5.551
						c-2.419,1.397-4.274,1.688-5.564,0.876c-1.29-0.812-1.936-2.707-1.936-5.684c0-2.945,0.642-5.564,1.925-7.858
						c1.283-2.294,3.148-4.148,5.595-5.561c2.454-1.417,4.314-1.72,5.579-0.909C185.815,360.389,186.447,362.288,186.447,365.273z
						 M175.838,371.398c0,3.422,1.037,4.533,3.111,3.335c1.054-0.609,1.837-1.476,2.346-2.601c0.51-1.125,0.765-2.567,0.765-4.327
						c0-1.766-0.259-2.922-0.775-3.467c-0.517-0.544-1.289-0.521-2.316,0.072C176.882,365.616,175.838,367.945,175.838,371.398z"/>
				</g>
				<polygon style="fill:#95A8C7;" points="180.008,441.759 130.751,470.198 130.751,466.601 180.008,438.162 				"/>
				<polygon style="fill:#95A8C7;" points="154.932,464.318 130.751,478.279 130.751,476.077 154.932,462.116 				"/>
				<polygon style="fill:#9BAFCF;" points="161.406,411.272 130.751,428.971 130.751,424.888 161.406,407.189 				"/>
				<polygon style="fill:#9BAFCF;" points="161.406,420.464 130.751,438.162 130.751,434.08 161.406,416.381 				"/>
				<polygon style="fill:#9BAFCF;" points="161.406,429.655 130.751,447.354 130.751,443.271 161.406,425.573 				"/>
			</g>
		</g>
	</g>
	<g>
		<g>
			<path style="fill:#B5B8C9;" d="M395.188,544.571c12.154,7.017,31.92,6.981,44.15-0.08c12.23-7.061,12.291-18.473,0.138-25.49
				c-12.153-7.017-31.92-6.981-44.15,0.08C383.097,526.141,383.035,537.554,395.188,544.571z"/>
			<path style="fill:#8E8E8E;" d="M419.584,519.814c0,0-1.218,0.482-1.186,1.426c0.031,0.945,0.092,4.502,0.092,4.502
				s-0.808,0.487-1.284,0.292c-0.476-0.194-1.19-1.276-1.19-1.276s-1.005-6.954-1.431-8.354
				C414.159,515.004,419.584,519.814,419.584,519.814z"/>
			<path style="fill:#C2D2EA;" d="M415.302,525.777c0,0-1.851-6.52-3.458-7.672c-1.606-1.152-8.591-3.349-8.814,1.78
				C402.807,525.016,415.302,525.777,415.302,525.777z"/>
			<path style="fill:#8E8E8E;" d="M407.071,524.673c0,0-1.784-0.618-1.808,0.326c-0.024,0.945-0.017,6.839-0.017,6.839
				s-0.435,0.388-0.898,0.165c-0.464-0.222-1.114-1.344-1.114-1.344s-0.525-5.86-0.868-7.282
				C402.024,521.955,407.071,524.673,407.071,524.673z"/>
			<path style="fill:#7282B5;" d="M415.462,515.841c0.905,1.592,3.184,2.48,4.181,3.602c1.416,1.584,4.499,9.216,5.529,10.322
				c1.039,1.106,3.418,0.369,7.214,0.402c3.804,0.033,2.48,0.209,2.321-0.88c-0.151-1.081-2.271-4.047-3.243-5.731
				c-0.971-1.692-5.236-5.839-6.292-9.14c-0.1-0.302-0.109-0.88-0.042-1.667c0.611-7.842,8.278-37.006,8.278-37.006
				s8.42-31.552,8.378-45.695c-0.033-10.405-2.756-18.951-2.756-18.951s-12.793,4.005-17.033,9.685
				c-0.712,0.963-1.19,1.969-1.315,3.008c-0.544,4.474-0.092,20.208,0.326,31.594c0.26,7.054,0.511,12.433,0.511,12.433
				s-1.491,3.033-2.865,7.691c-1.098,3.753-2.111,8.571-2.195,13.715c-0.017,0.846-0.008,1.709,0.034,2.572
				c0.126,2.564-0.411,18.465-1.29,21.708C414.951,514.442,415.093,515.196,415.462,515.841z"/>
			<path style="fill:#F2D8D8;" d="M422.614,470.996c0,0-2.866,11.889-3.025,18.432c-0.159,6.552-1.595,20.197-1.444,22.552
				c0.159,2.354,2.374,4.309,3.949,7.032c1.567,2.723,4.24,8.956,7.691,7.44c1.19-0.528,1.785-1.382,2.053-2.27
				c1.056,1.717,2.731,4.147,2.874,5.111c0.151,1.081,1.475,0.913-2.321,0.879c-3.804-0.033-6.183,0.704-7.214-0.402
				c-1.039-1.106-4.122-8.739-5.529-10.322c-1.416-1.592-5.329-2.698-4.449-5.94c0.88-3.242,1.416-19.144,1.29-21.716
				c-0.603-12.559,5.035-23.97,5.035-23.97s-1.5-32.189-0.972-42.268l3.385-6.803L422.614,470.996z"/>
			<path style="fill:#7282B5;" d="M404.085,468.764c0.435,6.049-1.483,8.604-2.379,20.241c-0.26,3.485,2.262,28.503,2.262,28.503
				s-0.754,2.907-0.896,4.851c-0.143,1.935,1.458,3.862,3.753,8.931c1.357,3.008,0.654,2.396,1.592,3.737
				c0.93,1.332,3.368,4.893,6.476,4.641c2.363-0.201,2.874-4.139,1.106-10.062c-0.553-1.843-3.025-9.417-3.134-10.222
				c-0.008-0.042-0.008-0.083-0.016-0.126c-0.394-3.636,1.416-19.488,2.564-24.732c0.41-1.868,0.762-3.703,1.047-5.303
				c0.528-2.958,0.821-5.102,0.821-5.102s1.081-5.253,1.357-8.395c0.008-0.067,0.017-0.134,0.017-0.218
				c0.226-2.304,1.332-11.797,2.354-20.124c0.755-6.141,1.467-11.637,1.743-13.145c0.654-3.603,4.499-17.117,1.776-19.772
				c-0.435-0.427-1.332-1.013-2.53-1.684c-6.3-3.561-21.096-9.501-22.487-6.342c-4.055,9.216-3.929,15.374-1.542,28.695
				C400.482,457.127,403.641,462.707,404.085,468.764z"/>
			<path style="fill:#FEBFBF;" d="M419.643,519.443c1.416,1.584,4.499,9.216,5.529,10.322c1.039,1.106,3.418,0.369,7.214,0.402
				c3.804,0.033,2.48,0.209,2.321-0.88c-0.151-1.081-2.271-4.047-3.243-5.731c-0.971-1.692-5.236-5.839-6.292-9.14
				c-0.1-0.302-0.109-0.88-0.042-1.667c-3.469,3.293-9.149-0.98-9.149-0.98c0.318,1.19,0.092,2.673-0.519,4.072
				C416.367,517.433,418.646,518.321,419.643,519.443z"/>
			<path style="fill:#C2D2EA;" d="M415.379,511.019c0,0,5.678,6.972,7.47,10.957c1.793,3.984,3.848,5.64,5.42,5.64
				c2.508,0,4.189-1.472,3.691-2.767c-0.498-1.295-0.498-1.295-0.498-1.295s6.134,6.966,5.138,11.149
				c-0.996,4.183-11.951-2.071-13.568-4.323c-0.618-0.86-1.676-7.01-3.071-8.803c-1.394-1.793-4.681-1.992-5.478-5.578
				C413.686,512.414,415.379,511.019,415.379,511.019z"/>
			<path style="fill:#FEBFBF;" d="M406.824,531.29c1.357,3.008,0.654,2.396,1.592,3.737c0.93,1.332,3.368,4.893,6.476,4.641
				c2.363-0.201,2.874-4.139,1.106-10.062c-0.553-1.843-3.025-9.417-3.134-10.222c-0.008-0.042-0.008-0.083-0.016-0.126
				c-1.081,0.821-2.346,1.307-3.687,1.173c-4.231-0.419-5.194-2.924-5.194-2.924s-0.754,2.907-0.896,4.851
				C402.928,524.294,404.529,526.221,406.824,531.29z"/>
			<path style="fill:#C2D2EA;" d="M413.732,522.285c0,0,2.453,5.11,3.466,8.563c2.21,7.529,1.949,10.769,1.329,12.515
				c-0.646,1.82-5.909-0.059-9.563-3.317c-4.189-3.735-2.118-7.909-4.592-12.325c-0.803-1.434-2.413-1.629-2.058-5.879
				c0.084-2.828,1.655-4.329,1.655-4.329s-1.19,3.019-0.285,5.454c0.455,1.226,0.806,1.9,1.505,3.438
				c1.391,3.061,1.77,6.109,3.859,8.37c1.961,2.122,8.078,1.131,7.965-0.079c-0.208-2.234-0.944-4.927-1.628-7.041
				C414.571,525.131,413.732,522.285,413.732,522.285z"/>
			<path style="fill:#8E8E8E;" d="M419.681,520.726c1.395,1.793,3.038,8.271,3.656,9.13c1.505,2.096,11.142,7.536,13.273,4.772
				c-0.005,0.024-0.004,0.05-0.01,0.074c-0.996,4.183-11.951-2.071-13.568-4.323c-0.618-0.86-1.676-7.01-3.071-8.803
				c-1.214-1.561-3.862-1.916-5.053-4.349C415.923,517.99,418.669,519.425,419.681,520.726z"/>
			<path style="fill:#8E8E8E;" d="M404.566,527.409c2.474,4.416,0.294,8.308,4.483,12.044c3.382,3.015,8.447,4.939,9.576,3.637
				c-0.033,0.093-0.066,0.184-0.098,0.273c-0.646,1.82-5.909-0.059-9.563-3.317c-4.189-3.735-2.118-7.909-4.592-12.325
				c-0.524-0.936-1.576-1.155-1.803-2.61C403.014,526.092,404.176,526.713,404.566,527.409z"/>
		</g>
		<path style="fill:#6A3646;" d="M405.596,311.25c0,0-4.334-2.259-7.04,0.096s-1.591,12.526,1.163,18.509
			c2.473,5.371,1.22,14.883-4.861,16.868c4.264,3.198,13.868-0.354,15.202-6.226C411.393,334.626,405.596,311.25,405.596,311.25z"/>
		<g>
			<path style="fill:#E9F0F9;" d="M428.24,341.836c0,0,3.957-2.233,7.338,6.004c3.381,8.237,7.037,26.894,8.69,29.617
				c1.653,2.724,0.067,5.875-8.98,8.172C426.24,387.927,428.24,341.836,428.24,341.836z"/>
			<path style="fill:#E9F0F9;" d="M440.591,364.796c0,0-1.076,0.891-3.874,0.905c-2.798,0.014-20.471-23.097-16.339-24.627
				c4.118-1.526,8.759,0.039,10.301,0.689C433.676,343.028,436.891,348.667,440.591,364.796z"/>
		</g>
		<path style="fill:#6F7ABD;" d="M439.56,372.032c0.034,1.615-0.103,3.334-0.378,5.088v0.033c-0.034,0.172-0.034,0.379-0.069,0.551
			c-0.275,1.822-0.687,3.644-1.272,5.397c-0.137,0.482-0.275,0.895-0.378,1.169c-1.65,4.504,1.753,29.152,1.237,31.112
			c-0.516,1.925-1.787,3.919-10.142,6.6c-2.337,0.757-4.984,1.307-7.735,1.65c-0.688,0.104-1.375,0.172-2.097,0.241
			c-2.44,0.241-4.95,0.344-7.322,0.275c-0.446,0-0.859,0-1.306-0.034c-0.703-0.028-1.389-0.072-2.06-0.126
			c-2.902-0.216-5.478-0.642-7.291-1.284c-0.928-0.309-1.685-0.687-2.269-1.1c-0.412-0.275-0.722-0.55-0.928-0.859
			c0,0,0.997-18.427,0.413-25.577c-0.344-4.401-2.888-10.142-5.26-15.814c-1.066-2.51-2.063-5.019-2.854-7.391
			c-0.309-0.963-0.584-1.891-0.825-2.784c-3.816-14.748,1.822-16.605,6.257-20.077c3.816-3.025,9.729-6.876,14.129-8.045
			c6.669-1.753,13.717-0.275,15.745-0.102c2.029,0.171,6.669,1.375,9.247,10.141c2.613,8.766,4.744,14.679,5.088,19.011
			C439.56,370.725,439.56,371.378,439.56,372.032z"/>
		<path style="fill:#DDE8F6;" d="M405.242,342.69c0,0-2.469,1.627-2.996,3.604c-0.527,1.978,8.05,13.94,22.81,19.603
			c5.677-10.606,2.108-17.909-0.66-22.036c-2.897-4.318-3.931-3.653-3.931-3.653L405.242,342.69z"/>
		
			<linearGradient id="SVGID_00000054948347030126273190000015381865239166037644_" gradientUnits="userSpaceOnUse" x1="4201.896" y1="136.6124" x2="4191.2373" y2="122.14" gradientTransform="matrix(-0.995 0.1 0.1 0.995 4574.5518 -209.2124)">
			<stop  offset="0.1224" style="stop-color:#FEC7C7"/>
			<stop  offset="0.9694" style="stop-color:#FFADB7"/>
		</linearGradient>
		<path style="fill:url(#SVGID_00000054948347030126273190000015381865239166037644_);" d="M423.763,340.004
			c0,0-1.043,2.444-0.82,4.664c0.223,2.221,1.453,5.916,1.453,5.916s-1.362,2.619-6.791,2.019c-5.429-0.6-5.618-2.49-7.339-3.463
			c-1.721-0.973-6.146-5.434-5.868-5.748c0.278-0.314,4.777-2.555,3.049-9.004c-1.727-6.449-4.277-9.787-4.277-9.787
			s-1.507-2.71,0.377-2.9C405.432,321.513,423.763,340.004,423.763,340.004z"/>
		<path style="fill:#FFFFFF;" d="M407.528,341.053l0.377,3.061c0,0,3.251,8.018,13.122,7.835c0.203,1.534-0.004,5.875-1.539,7.16
			c-6.288-2.39-12.761-7.545-15.077-11.339c-1.667-2.731,0.736-5.952,0.736-5.952l2.18-1.949L407.528,341.053z"/>
		<path style="fill:#FFFFFF;" d="M422.878,344.01l0.437,3.201c-0.109,0.982-0.413,3.324-2.287,4.738
			c1.869,2.377,5.03,3.464,6.235,3.332c-0.992-3.648-1.885-5.633-2.866-8.352C423.763,345.171,422.98,343.318,422.878,344.01z"/>
		
			<linearGradient id="SVGID_00000163055256583230081040000010566275830704184713_" gradientUnits="userSpaceOnUse" x1="4184.8516" y1="133.4216" x2="4197.1665" y2="133.4216" gradientTransform="matrix(-0.995 0.1 0.1 0.995 4574.5518 -209.2124)">
			<stop  offset="0.1224" style="stop-color:#FCA4B5"/>
			<stop  offset="0.9896" style="stop-color:#FFADB7"/>
		</linearGradient>
		<path style="fill:url(#SVGID_00000163055256583230081040000010566275830704184713_);" d="M411.076,336.918
			c0,0,4.631,4.324,5.608,6.517c0.978,2.193,5.478,5.177,5.478,5.177l0.756-4.862l0.845-3.747L411.076,336.918z"/>
		<g>
			<path style="fill:#FEC7C7;" d="M425.044,309.996c0,0,1.971,1.568,3.258,4.875c1.287,3.307,2.191,6.128,2.106,6.709
				c-0.085,0.581-0.58,1.824,0.182,4.182c0.762,2.358-1.633,14.149-4.189,15.313c-2.556,1.164-14.362-2.805-15.677-4.487
				c-1.314-1.682-4.673-8.504-5.086-13.092c-0.413-4.588-1.763-9.942,4.88-12.709C417.161,308.02,425.044,309.996,425.044,309.996z"
				/>
			<g>
				
					<linearGradient id="SVGID_00000090270630668784681210000002914719648137701039_" gradientUnits="userSpaceOnUse" x1="4180.2617" y1="119.0792" x2="4178.0806" y2="119.3277" gradientTransform="matrix(-0.995 0.1 0.1 0.995 4574.5518 -209.2124)">
					<stop  offset="0.1224" style="stop-color:#FEC7C7"/>
					<stop  offset="0.9896" style="stop-color:#FFDBDB"/>
				</linearGradient>
				<path style="fill:url(#SVGID_00000090270630668784681210000002914719648137701039_);" d="M426.573,322.841
					c-0.251,1.298,3.114,6.61,3.265,7.795c0.151,1.185-3.182,1.106-3.182,1.106L426.573,322.841z"/>
				
					<linearGradient id="SVGID_00000171695085932398310170000009770779395438107071_" gradientUnits="userSpaceOnUse" x1="4177.6934" y1="119.1227" x2="4181.1685" y2="119.1227" gradientTransform="matrix(-0.995 0.1 0.1 0.995 4574.5518 -209.2124)">
					<stop  offset="0.188" style="stop-color:#FFDCDC"/>
					<stop  offset="0.8991" style="stop-color:#FEC7C7"/>
				</linearGradient>
				<path style="fill:url(#SVGID_00000171695085932398310170000009770779395438107071_);" d="M427.299,331.909
					c0.788-0.034,2.048-0.172,2.523-0.698c0.155-0.173,0.22-0.374,0.192-0.598c-0.066-0.521-0.672-1.704-1.374-3.074
					c-0.904-1.766-2.031-3.963-1.894-4.664l-0.347-0.068c-0.157,0.82,0.902,2.891,1.927,4.893c0.659,1.285,1.28,2.498,1.337,2.959
					c0.016,0.12-0.016,0.221-0.103,0.316c-0.477,0.53-2.259,0.604-2.899,0.592l-0.008,0.351
					C426.726,331.92,426.971,331.923,427.299,331.909z"/>
			</g>
			<g>
				<path style="fill:#754554;" d="M416.881,324.088l1.461-0.492c3.536-0.82,5.362-0.41,5.38-0.407l0.136-0.57
					c-0.077-0.02-1.956-0.45-5.678,0.412l-1.488,0.5L416.881,324.088z"/>
			</g>
			<g>
				<path style="fill:#754554;" d="M427.572,322.081c0.82-0.568,2.198-1.316,2.626-1.225l0.122-0.574
					c-0.847-0.172-2.718,1.065-3.081,1.315L427.572,322.081z"/>
			</g>
			<path style="fill:#FFFFFF;" d="M419.433,325.96c0.164,0.56,0.827,0.859,1.483,0.668c0.656-0.191,1.054-0.8,0.891-1.361
				c-0.163-0.56-0.827-0.859-1.483-0.668C419.668,324.79,419.27,325.399,419.433,325.96z"/>
			<path style="fill:#FFFFFF;" d="M427.749,323.483c-0.394,0.386-0.441,0.976-0.106,1.319c0.336,0.343,0.927,0.307,1.32-0.079
				c0.394-0.386,0.441-0.976,0.106-1.319C428.734,323.062,428.142,323.097,427.749,323.483z"/>
			<path style="fill:#FB7F9E;" d="M422.878,335.94c0,0,3.39-1.176,4.756-1.361c1.365-0.185,1.46,0.283,1.363,0.746
				C428.9,335.788,426.78,339.152,422.878,335.94z"/>
			<path style="fill:#754554;" d="M403.953,325.257c0,0,1.077-1.394,1.888-0.924c0.811,0.47,2.331,1.105,2.395,1.742
				c0.064,0.638,0.649,4.087,0.649,4.087s1.462-2.557,1.205-5.109c-0.256-2.552,0.531-6.115,1.565-7.699
				c1.034-1.583,2.078-4.027,4.521-4.416c2.443-0.388,5.831,0.082,7.821-0.07c1.989-0.152,2.8-0.862,2.8-0.862l1.796,3.618
				c0,0-0.109-1.809-1.219-3.828c-1.11-2.02-9.195-11.23-20.533-4.841c-8.329,4.035-7.782,13.287-6.49,16.642
				c1.292,3.354,5.215,6.329,5.616,7.359c0.4,1.03,1.482,2.476,1.482,3.431c0.001,0.954-0.471-3.58-1.277-5.504
				C405.365,326.96,403.953,325.257,403.953,325.257z"/>
			
				<linearGradient id="SVGID_00000096780335776016933260000014924955117904748933_" gradientUnits="userSpaceOnUse" x1="4198.7793" y1="118.3386" x2="4204.4404" y2="118.3386" gradientTransform="matrix(-0.995 0.1 0.1 0.995 4574.5518 -209.2124)">
				<stop  offset="0.1224" style="stop-color:#FEB9B8"/>
				<stop  offset="1" style="stop-color:#FFDEDE"/>
			</linearGradient>
			<path style="fill:url(#SVGID_00000096780335776016933260000014924955117904748933_);" d="M406.988,326.01
				c0,0-2.92-2.928-3.977-0.627c-1.057,2.302,1.281,4.907,2.791,6.163c1.511,1.256,2.619,1.598,3.051,0.911
				c0.432-0.688-0.703-3.199-0.703-3.199L406.988,326.01z"/>
			<path style="fill:#EFF0F5;" d="M407.786,332.352c0.014,0.326,0.289,0.579,0.615,0.564c0.326-0.014,0.578-0.289,0.564-0.615
				c-0.014-0.326-0.29-0.578-0.615-0.565C408.025,331.751,407.772,332.026,407.786,332.352z"/>
			
				<linearGradient id="SVGID_00000073688275912422021570000014536556263647143343_" gradientUnits="userSpaceOnUse" x1="4199.6919" y1="117.9573" x2="4203.6172" y2="117.9573" gradientTransform="matrix(-0.995 0.1 0.1 0.995 4574.5518 -209.2124)">
				<stop  offset="0.1224" style="stop-color:#FCA4B5"/>
				<stop  offset="0.9896" style="stop-color:#FFADB7"/>
			</linearGradient>
			<path style="fill:url(#SVGID_00000073688275912422021570000014536556263647143343_);" d="M406.563,326.052
				c0,0-1.863-1.674-2.639-0.379c-0.777,1.295-0.119,3.568,1.85,5.47c1.895,0.693,2.172-0.123,2.148-0.359
				c-0.024-0.236-0.75-1.286-0.844-2.219C406.984,327.633,406.563,326.052,406.563,326.052z"/>
		</g>
		<path style="fill:#D1EFEB;" d="M439.56,372.032c0.034,1.615-0.103,3.334-0.378,5.088v0.033c-0.034,0.172-0.034,0.379-0.069,0.551
			c-0.447,2.063-0.928,4.056-1.272,5.397c-0.137,0.482-0.275,0.895-0.378,1.169c-1.65,4.504,1.753,29.152,1.237,31.112
			c-0.516,1.925-1.787,3.919-10.142,6.6c-2.337,0.757-4.984,1.307-7.735,1.65c-0.688,0.104-1.375,0.172-2.097,0.241
			c-2.44,0.241-4.95,0.344-7.322,0.275c-0.446,0-0.859,0-1.306-0.034c-5.122-0.206-9.523-1.1-11.62-2.51
			c-0.412-0.275-0.722-0.55-0.928-0.859c0,0,0.997-18.427,0.413-25.577c-0.344-4.401-2.888-10.142-5.26-15.814
			c4.538-6.326,8.663-10.141,8.147-7.494c-1.169,6.188-1.203,14.816,6.841,14.988c11.344,0.31,14.164-4.125,19.561-6.085
			C434.817,378.013,438.151,374.37,439.56,372.032z"/>
		<path style="fill:#DEDEDE;" d="M424.634,382.461c0,0-16.962,9.13-23.25,0l0-0.001c-0.129-6.422-0.429-13.351-0.429-13.351
			c-4.469-0.103-8.113,0.963-11.104,2.854c0.791,2.372,1.788,4.881,2.854,7.391c2.371,5.672,4.915,11.413,5.26,15.814
			c0.584,7.15-0.396,25.561-0.396,25.561c0.585,0.79,1.685,1.443,3.198,1.959c-0.653-3.609-1.238-7.769-1.41-11.928
			c-0.584-12.205,1.84-14.011,2.046-20.302c0.04-1.22,0.047-2.774,0.034-4.48C404.489,387.576,412.149,389.842,424.634,382.461z"/>
		<g>
			<g>
				<path style="fill:#E9F0F9;" d="M394.859,397.589c0,0,6.243-26.249,5.467-34.665c-0.776-8.416-7.063-9.409-9.636-8.624
					c-2.573,0.786-4.113,3.364-4.704,15.854c-0.59,12.49-0.964,23.682-0.847,25.911
					C385.255,398.296,394.859,397.589,394.859,397.589z"/>
			</g>
		</g>
		<path style="fill:#E9F0F9;" d="M444.268,377.458l9.179,30.217c0,0-2.514,2.968-5.676,2.73c-1.174-4.517-13.906-29.47-13.906-29.47
			S438.51,380.865,444.268,377.458z"/>
		<path style="fill:#E9F0F9;" d="M414.443,413.139c0,0-13.933-11.083-17.872-20.514c-1.077-2.58-3.956-2.997-8.963-2.431
			c-0.385,0.565-0.982,1.218-1.279,1.904c-1.111,2.568-3.244,5.203,3.647,10.915c8.733,7.237,20.755,16.197,20.755,16.197
			S411.399,415.045,414.443,413.139z"/>
		<polygon style="fill:#A76478;" points="450.955,381.536 449.312,401.56 448.776,403.816 447.662,429.31 418.475,438.396 
			420.137,392.782 		"/>
		<polygon style="fill:#DFE5EE;" points="425.972,392.726 427.177,387.238 443.777,381.536 446.307,385.963 		"/>
		<path style="fill:#FEC7C6;" d="M450.018,401.411c0,0,2.125,2.109,2.607,2.955c0.482,0.848,0.488,2.764,0.488,2.764l-0.384,3.161
			c0,0-0.879,1.716-0.985,2.294c-0.107,0.58-2.127,2.441-3.093,2.702c-0.966,0.26-4.784-0.007-4.784-0.007l-1.058-1.831
			l-1.863-0.504l-0.583-1.385c0,0-1.126-1.245-0.745-2.012c0.381-0.768,0.711-0.827,0.711-0.827s-0.251-1.882,0.596-2.364
			c0.847-0.482,7.852-2.541,7.852-2.541l0.536-2.256L450.018,401.411z"/>
		<path style="fill:#FEC7C6;" d="M420.6,411.547c0,0,3.053-0.75,4.505-1.294c1.453-0.543,4.86-0.605,5.361-0.392
			c0.502,0.213,0.398,1.587,0.398,1.587s1.084-0.172,1.284,0.046c0.2,0.217,0.003,1.773,0.003,1.773l-1.065,0.885
			c0,0,1.794,1.022,0.878,1.755c-0.916,0.732-2.26,1.175-2.26,1.175s0.375,0.249-0.299,0.966c-0.674,0.717-3.512,2.281-4.721,2.808
			c-1.209,0.528-3.56,1.136-5.605,0.962c-2.045-0.174-7.219-2.526-8.731-2.935c-1.512-0.409-1.669-3.714-0.912-5.06
			c0.558-0.993,1.147-1.597,2.26-1.842c0.363-0.08,0.766-0.176,1.184-0.289c1.518-0.411,4.937-2.312,6.653-2.337
			c-0.385,0.94-0.076,2.09-0.076,2.09L420.6,411.547z"/>
	</g>
	<g>
		<path style="fill:#B5B8C9;" d="M501.82,544.718l-27.598-15.933l-63.426,36.619l27.598,15.934c2.905,1.677,6.805,2.479,10.881,2.46
			l0.005,0.01h37.45l12.696-24.453l0.619-0.357C507.365,554.771,508.16,548.378,501.82,544.718z"/>
		<g>
			
				<linearGradient id="SVGID_00000047045850253424452080000000763983480379590274_" gradientUnits="userSpaceOnUse" x1="449.2799" y1="554.6592" x2="540.0831" y2="554.6592">
				<stop  offset="0" style="stop-color:#484583"/>
				<stop  offset="0.2979" style="stop-color:#484583"/>
				<stop  offset="0.347" style="stop-color:#484583"/>
				<stop  offset="0.4153" style="stop-color:#4E5693"/>
				<stop  offset="0.4783" style="stop-color:#52609D"/>
				<stop  offset="0.6408" style="stop-color:#6A76BE"/>
			</linearGradient>
			<path style="fill:url(#SVGID_00000047045850253424452080000000763983480379590274_);" d="M540.083,525.51l-90.803,5.873v34.89
				l26.294,15.181c6.04,3.487,16.591,3.05,23.565-0.977l35.174-20.308c3.82-2.206,5.77-5.03,5.765-7.708l0.005-0.001L540.083,525.51
				z"/>
			<path style="fill:#CACDDD;" d="M509.712,414.868v22.359l32.297-1.275c0,0,7.165-12.181-10.748-18.092
				C513.348,411.948,509.712,414.868,509.712,414.868z"/>
			<path style="fill:#F0F1F5;" d="M499.139,462.63l35.174-20.308c6.974-4.027,7.732-10.118,1.692-13.605l-23.833-5.127
				l-60.431,34.89l23.833,5.128C481.614,467.094,492.164,466.657,499.139,462.63z"/>
			<g>
				<path style="fill:#BDDCF2;" d="M483.968,456.369c0.012,0.218,0.006,0.408-0.014,0.58c-0.003,0.035-0.006,0.066-0.012,0.098
					c-0.031,0.178-0.08,0.33-0.155,0.463c-0.213,0.437-0.615,0.851-1.21,1.195c-1.868,1.078-5.698,1.072-7.577-0.012
					c-0.103-0.063-0.201-0.126-0.296-0.19c-0.02,0-0.092-0.049-0.238-0.178c-0.012-0.012-0.02-0.02-0.032-0.029
					c-0.21-0.178-0.382-0.365-0.514-0.558c-0.523-0.704-0.552-1.325-0.549-1.69c0.006-0.672,0.259-1.612,0.592-3.072
					c0.497-2.181-0.516-14.839,0.044-16.571c0.56-1.733,1.959-3.471,2.237-5.388c0.282-1.917,0.874-5.652,0.874-5.652l0.457,0.055
					l1.098,0.132l1.555,0.19c0,0,0.77,4.178,1.262,6.121c0.494,1.943,1.316,1.497,2.259,5.341c0.465,1.894-0.653,14.54-0.156,16.842
					C483.807,455.036,483.942,455.789,483.968,456.369z"/>
				<path style="fill:#94C7E8;" d="M483.026,455.884c-0.003-0.16-0.031-0.32-0.086-0.478c-0.139-0.804-0.396-2.456-0.409-3.751
					c-0.018-1.778,0.652-12.277,0.472-13.912c-0.18-1.634-1.685-4.613-1.852-5.125c-0.167-0.512-4.914-0.138-4.914-0.138
					s-1.516,3.861-1.587,4.819c-0.072,0.958,0.129,13.146,0.237,14.343c0.108,1.197-0.73,3.029-0.561,4.371l0.005,0
					c0.057,0.599,0.479,1.19,1.273,1.649c1.706,0.985,4.463,0.99,6.159,0.011c0.851-0.491,1.272-1.137,1.265-1.783h0.001
					L483.026,455.884z"/>
				<path style="fill:#9AD0F1;" d="M480.443,431.82c-0.984-0.568-2.573-0.571-3.551-0.006c-0.978,0.564-0.973,1.482,0.011,2.05
					c0.984,0.568,2.573,0.571,3.551,0.007C481.431,433.306,481.426,432.388,480.443,431.82z"/>
				<path style="fill:#9AD0F1;" d="M481.474,454.332c-1.557-0.899-4.073-0.903-5.619-0.01s-1.539,2.346,0.018,3.244
					c1.557,0.899,4.073,0.903,5.619,0.01C483.038,456.683,483.03,455.23,481.474,454.332z"/>
				<path style="fill:#C2D6E2;" d="M483.953,456.949c-0.003,0.035-0.006,0.066-0.012,0.098c-0.031,0.178-0.08,0.33-0.155,0.463
					c-0.213,0.437-0.615,0.851-1.21,1.195c-1.868,1.078-5.698,1.072-7.577-0.012c-0.103-0.063-0.201-0.126-0.296-0.19
					c-0.02,0-0.092-0.049-0.238-0.178c-0.012-0.012-0.02-0.02-0.032-0.029c-0.21-0.178-0.382-0.365-0.514-0.558
					c-0.523-0.704-0.552-1.325-0.549-1.69c0.006-0.672,0.259-1.612,0.592-3.072c0.497-2.181-0.516-14.839,0.044-16.571
					c0.56-1.733,1.959-3.471,2.237-5.388c0.282-1.917,0.874-5.652,0.874-5.652l0.457,0.055c-0.287,3.988-0.53,7.073-1.69,8.869
					c-1.187,1.833-0.708,3.429-0.492,6.481c0.215,3.052,0.421,10.146,0.171,12.014c-0.253,1.868-1.486,4.287-0.144,5.405
					c1.342,1.121,5.586,1.026,7.092,0c0.802-0.543,1.259-1.075,1.457-1.822C483.979,456.587,483.974,456.777,483.953,456.949z"/>
				<path style="fill:#546AB8;" d="M480.912,425.237l-0.207-2.138l-2.033-1.174l-2.033,1.165l-0.207,2.134l0.001,0
					c-0.002,0.334,0.218,0.669,0.66,0.924c0.877,0.507,2.296,0.509,3.167,0.006C480.699,425.902,480.915,425.569,480.912,425.237
					L480.912,425.237z M478.672,423.944L478.672,423.944h0.001H478.672z"/>
				<path style="fill:#5B81DE;" d="M480.105,422.266c-0.796-0.46-2.083-0.462-2.875-0.005c-0.791,0.457-0.787,1.2,0.009,1.66
					c0.796,0.46,2.083,0.462,2.875,0.005C480.906,423.469,480.902,422.726,480.105,422.266z"/>
				<path style="fill:#6593E3;" d="M480.007,422.242c-0.741-0.428-1.94-0.43-2.677-0.005c-0.737,0.425-0.733,1.117,0.008,1.546
					c0.742,0.428,1.94,0.43,2.677,0.005C480.752,423.363,480.749,422.671,480.007,422.242z"/>
				<path style="fill:#395C78;" d="M478.75,426.88c-0.027,3.161,0.997,7.007,0.949,8.276c-0.048,1.269,0.623,2.155,1.125,2.275
					c0.503,0.12,1.359,0.034,1.55-0.828c0.192-0.862-0.674-2.247-1.012-3.069c-0.338-0.822-1.568-6.795-1.568-6.795
					S479.388,426.818,478.75,426.88z"/>
				<path style="fill:#395C78;" d="M482.351,454.582c-1.077,0.346-1.742,0.718-1.832,1.473c-0.09,0.754,0.344,0.969,0.629,1.006
					c0.907,0.117,1.309-0.177,1.778-0.593c0.469-0.416,0.521-0.503,0.431-0.898C483.267,455.175,482.898,454.407,482.351,454.582z"
					/>
				<path style="fill:#203343;" d="M480.13,440.309c0.322,3.433-0.311,12.101,0.359,13.761c0.958-0.112,2.011-0.495,2.059-0.926
					s-0.072-9.722,0-11.422c0.072-1.7,0.311-3.759,0.012-3.759c-0.299,0-0.85,0.575-1.664,0.575
					C480.082,438.536,479.986,438.776,480.13,440.309z"/>
			</g>
			
				<linearGradient id="SVGID_00000041270293408505873500000012385271864870942874_" gradientUnits="userSpaceOnUse" x1="445.5802" y1="501.531" x2="545.1718" y2="501.531">
				<stop  offset="0" style="stop-color:#CACDDD"/>
				<stop  offset="0.2979" style="stop-color:#CACDDD"/>
				<stop  offset="0.347" style="stop-color:#CACDDD"/>
				<stop  offset="0.4171" style="stop-color:#DCDDE3"/>
				<stop  offset="0.4783" style="stop-color:#E6E6E6"/>
				<stop  offset="0.6408" style="stop-color:#E6E6E6"/>
			</linearGradient>
			<path style="fill:url(#SVGID_00000041270293408505873500000012385271864870942874_);" d="M545.172,427.318v114.038h-0.007
				c-0.004,3.583-2.619,7.359-7.728,10.307l-33.977,19.618c-9.347,5.395-23.491,5.983-31.587,1.308l-26.292-15.179V451.894
				c0,0,15.824,0.627,26.292,6.671l20.995,1.689l46.454-25.794L545.172,427.318z"/>
			<g>
				<path style="fill:#5E5E5E;" d="M512.81,450.164l-1.791-0.02c0.192-17.392-2.207-21.912-4.829-24.207
					c-3.259-2.851-7.153-5.456-7.192-5.482l0.994-1.49c0.163,0.108,4.028,2.693,7.378,5.624
					C510.772,427.566,513,433.055,512.81,450.164z"/>
			</g>
			<path style="fill:#838FDB;" d="M537.437,437.639l-33.977,19.615c-9.347,5.399-23.491,5.986-31.587,1.311
				c-10.468-6.044-26.292-6.671-26.292-6.671l3.697-2.135c0,0,3.934,0.158,9.182,1.06c5.273,0.91,11.865,2.576,17.114,5.607
				c6.04,3.489,16.591,3.052,23.566-0.974l35.174-20.31c6.975-4.027,7.731-10.117,1.691-13.603
				c-10.468-6.044-26.292-6.671-26.292-6.671l3.697-2.135c0,0,3.937,0.154,9.182,1.06c5.274,0.91,11.865,2.576,17.114,5.607
				C547.801,424.075,546.784,432.24,537.437,437.639z"/>
			<path style="fill:#3C3C3C;" d="M493.907,415.185l-0.516,0.786c-1.052,1.602-0.607,3.754,0.995,4.806l3.414,2.242
				c1.602,1.052,3.754,0.607,4.806-0.995l0.516-0.786c1.052-1.602,0.607-3.754-0.995-4.806l-3.414-2.242
				C497.111,413.137,494.959,413.582,493.907,415.185z"/>
			<path style="fill:#484848;" d="M502.941,419.023c-0.426,0.541-1.503,0.403-2.407-0.308c-0.904-0.711-1.291-1.726-0.865-2.267
				c0.426-0.541,1.504-0.403,2.407,0.309S503.367,418.482,502.941,419.023z"/>
			<path style="fill:#5E5E5E;" d="M503.15,421.195c0,0-0.556-0.587-0.986-0.381c-0.43,0.206-0.712,0.683-0.729,0.999
				c-0.017,0.316,0.082,0.382,0.082,0.382l0.58,0.44l0.74-0.542L503.15,421.195z"/>
		</g>
	</g>
</g>
</svg>
